<?xml version="1.0" encoding="utf-8"?>
<!-- Generator: Adobe Illustrator 24.1.3, SVG Export Plug-In . SVG Version: 6.00 Build 0)  -->
<svg version="1.1" id="Layer_1" xmlns="http://www.w3.org/2000/svg" xmlns:xlink="http://www.w3.org/1999/xlink" x="0px" y="0px"
	 viewBox="0 0 700 500" style="enable-background:new 0 0 700 500;" xml:space="preserve">
<style type="text/css">
	.st0{fill:#FFFFFF;}
	.st1{fill:#E3F2FD;}
	.st2{fill:#007BFF;}
	.st3{fill:#212121;}
	.st4{fill:#BBDEFB;}
</style>
<g>
	<rect class="st0" width="700" height="500"/>
	<g>
		<g>
			<path d="M77.2,364.8c-4.5,0-8.1-3.7-8.1-8.1c0-4.5,3.7-8.1,8.1-8.1c4.5,0,8.1,3.7,8.1,8.1C85.4,361.1,81.7,364.8,77.2,364.8z
				 M77.2,349.7c-3.8,0-7,3.1-7,7c0,3.8,3.1,7,7,7c3.8,0,7-3.1,7-7C84.2,352.8,81.1,349.7,77.2,349.7z"/>
		</g>
		<path class="st1" d="M146.8,102.6c-23.4,0-42.4,19-42.4,42.4c0,23.4,19,42.4,42.4,42.4s42.4-19,42.4-42.4
			C189.2,121.6,170.2,102.6,146.8,102.6z M146.8,172.8c-15.3,0-27.8-12.4-27.8-27.8c0-15.3,12.4-27.8,27.8-27.8s27.8,12.4,27.8,27.8
			C174.6,160.3,162.1,172.8,146.8,172.8z"/>
		<g>
			<path d="M40.4,36.4c0,0.6-0.5,1.1-1.1,1.1c-0.6,0-1.1-0.5-1.1-1.1c0-0.6,0.5-1.1,1.1-1.1C39.9,35.4,40.4,35.8,40.4,36.4z"/>
			<path d="M49.4,36.4c0,0.6-0.5,1.1-1.1,1.1c-0.6,0-1.1-0.5-1.1-1.1c0-0.6,0.5-1.1,1.1-1.1C49,35.4,49.4,35.8,49.4,36.4z"/>
			<path d="M58.5,36.4c0,0.6-0.5,1.1-1.1,1.1c-0.6,0-1.1-0.5-1.1-1.1c0-0.6,0.5-1.1,1.1-1.1C58,35.4,58.5,35.8,58.5,36.4z"/>
			<path d="M67.5,36.4c0,0.6-0.5,1.1-1.1,1.1c-0.6,0-1.1-0.5-1.1-1.1c0-0.6,0.5-1.1,1.1-1.1C67.1,35.4,67.5,35.8,67.5,36.4z"/>
			<path d="M76.6,36.4c0,0.6-0.5,1.1-1.1,1.1c-0.6,0-1.1-0.5-1.1-1.1c0-0.6,0.5-1.1,1.1-1.1C76.1,35.4,76.6,35.8,76.6,36.4z"/>
			<path d="M85.6,36.4c0,0.6-0.5,1.1-1.1,1.1c-0.6,0-1.1-0.5-1.1-1.1c0-0.6,0.5-1.1,1.1-1.1C85.2,35.4,85.6,35.8,85.6,36.4z"/>
			<path d="M94.7,36.4c0,0.6-0.5,1.1-1.1,1.1c-0.6,0-1.1-0.5-1.1-1.1c0-0.6,0.5-1.1,1.1-1.1C94.2,35.4,94.7,35.8,94.7,36.4z"/>
			<path d="M40.4,45.5c0,0.6-0.5,1.1-1.1,1.1c-0.6,0-1.1-0.5-1.1-1.1s0.5-1.1,1.1-1.1C39.9,44.4,40.4,44.9,40.4,45.5z"/>
			<path d="M49.4,45.5c0,0.6-0.5,1.1-1.1,1.1c-0.6,0-1.1-0.5-1.1-1.1s0.5-1.1,1.1-1.1C49,44.4,49.4,44.9,49.4,45.5z"/>
			<path d="M58.5,45.5c0,0.6-0.5,1.1-1.1,1.1c-0.6,0-1.1-0.5-1.1-1.1s0.5-1.1,1.1-1.1C58,44.4,58.5,44.9,58.5,45.5z"/>
			<path d="M67.5,45.5c0,0.6-0.5,1.1-1.1,1.1c-0.6,0-1.1-0.5-1.1-1.1s0.5-1.1,1.1-1.1C67.1,44.4,67.5,44.9,67.5,45.5z"/>
			<path d="M76.6,45.5c0,0.6-0.5,1.1-1.1,1.1c-0.6,0-1.1-0.5-1.1-1.1s0.5-1.1,1.1-1.1C76.1,44.4,76.6,44.9,76.6,45.5z"/>
			<path d="M85.6,45.5c0,0.6-0.5,1.1-1.1,1.1c-0.6,0-1.1-0.5-1.1-1.1s0.5-1.1,1.1-1.1C85.2,44.4,85.6,44.9,85.6,45.5z"/>
			<path d="M94.7,45.5c0,0.6-0.5,1.1-1.1,1.1c-0.6,0-1.1-0.5-1.1-1.1s0.5-1.1,1.1-1.1C94.2,44.4,94.7,44.9,94.7,45.5z"/>
			<path d="M40.4,54.5c0,0.6-0.5,1.1-1.1,1.1c-0.6,0-1.1-0.5-1.1-1.1c0-0.6,0.5-1.1,1.1-1.1C39.9,53.5,40.4,53.9,40.4,54.5z"/>
			<path d="M49.4,54.5c0,0.6-0.5,1.1-1.1,1.1c-0.6,0-1.1-0.5-1.1-1.1c0-0.6,0.5-1.1,1.1-1.1C49,53.5,49.4,53.9,49.4,54.5z"/>
			<path d="M58.5,54.5c0,0.6-0.5,1.1-1.1,1.1c-0.6,0-1.1-0.5-1.1-1.1c0-0.6,0.5-1.1,1.1-1.1C58,53.5,58.5,53.9,58.5,54.5z"/>
			<path d="M67.5,54.5c0,0.6-0.5,1.1-1.1,1.1c-0.6,0-1.1-0.5-1.1-1.1c0-0.6,0.5-1.1,1.1-1.1C67.1,53.5,67.5,53.9,67.5,54.5z"/>
			<path d="M76.6,54.5c0,0.6-0.5,1.1-1.1,1.1c-0.6,0-1.1-0.5-1.1-1.1c0-0.6,0.5-1.1,1.1-1.1C76.1,53.5,76.6,53.9,76.6,54.5z"/>
			<path d="M85.6,54.5c0,0.6-0.5,1.1-1.1,1.1c-0.6,0-1.1-0.5-1.1-1.1c0-0.6,0.5-1.1,1.1-1.1C85.2,53.5,85.6,53.9,85.6,54.5z"/>
			<path d="M94.7,54.5c0,0.6-0.5,1.1-1.1,1.1c-0.6,0-1.1-0.5-1.1-1.1c0-0.6,0.5-1.1,1.1-1.1C94.2,53.5,94.7,53.9,94.7,54.5z"/>
			<path d="M40.4,63.6c0,0.6-0.5,1.1-1.1,1.1c-0.6,0-1.1-0.5-1.1-1.1c0-0.6,0.5-1.1,1.1-1.1C39.9,62.5,40.4,63,40.4,63.6z"/>
			<path d="M49.4,63.6c0,0.6-0.5,1.1-1.1,1.1c-0.6,0-1.1-0.5-1.1-1.1c0-0.6,0.5-1.1,1.1-1.1C49,62.5,49.4,63,49.4,63.6z"/>
			<path d="M58.5,63.6c0,0.6-0.5,1.1-1.1,1.1c-0.6,0-1.1-0.5-1.1-1.1c0-0.6,0.5-1.1,1.1-1.1C58,62.5,58.5,63,58.5,63.6z"/>
			<path d="M67.5,63.6c0,0.6-0.5,1.1-1.1,1.1c-0.6,0-1.1-0.5-1.1-1.1c0-0.6,0.5-1.1,1.1-1.1C67.1,62.5,67.5,63,67.5,63.6z"/>
			<path d="M76.6,63.6c0,0.6-0.5,1.1-1.1,1.1c-0.6,0-1.1-0.5-1.1-1.1c0-0.6,0.5-1.1,1.1-1.1C76.1,62.5,76.6,63,76.6,63.6z"/>
			<path d="M85.6,63.6c0,0.6-0.5,1.1-1.1,1.1c-0.6,0-1.1-0.5-1.1-1.1c0-0.6,0.5-1.1,1.1-1.1C85.2,62.5,85.6,63,85.6,63.6z"/>
			<path d="M94.7,63.6c0,0.6-0.5,1.1-1.1,1.1c-0.6,0-1.1-0.5-1.1-1.1c0-0.6,0.5-1.1,1.1-1.1C94.2,62.5,94.7,63,94.7,63.6z"/>
			<path d="M40.4,72.6c0,0.6-0.5,1.1-1.1,1.1c-0.6,0-1.1-0.5-1.1-1.1s0.5-1.1,1.1-1.1C39.9,71.6,40.4,72,40.4,72.6z"/>
			<path d="M49.4,72.6c0,0.6-0.5,1.1-1.1,1.1c-0.6,0-1.1-0.5-1.1-1.1s0.5-1.1,1.1-1.1C49,71.6,49.4,72,49.4,72.6z"/>
			<path d="M58.5,72.6c0,0.6-0.5,1.1-1.1,1.1c-0.6,0-1.1-0.5-1.1-1.1s0.5-1.1,1.1-1.1C58,71.6,58.5,72,58.5,72.6z"/>
			<path d="M67.5,72.6c0,0.6-0.5,1.1-1.1,1.1c-0.6,0-1.1-0.5-1.1-1.1s0.5-1.1,1.1-1.1C67.1,71.6,67.5,72,67.5,72.6z"/>
			<path d="M76.6,72.6c0,0.6-0.5,1.1-1.1,1.1c-0.6,0-1.1-0.5-1.1-1.1s0.5-1.1,1.1-1.1C76.1,71.6,76.6,72,76.6,72.6z"/>
			<path d="M85.6,72.6c0,0.6-0.5,1.1-1.1,1.1c-0.6,0-1.1-0.5-1.1-1.1s0.5-1.1,1.1-1.1C85.2,71.6,85.6,72,85.6,72.6z"/>
			<path d="M94.7,72.6c0,0.6-0.5,1.1-1.1,1.1c-0.6,0-1.1-0.5-1.1-1.1s0.5-1.1,1.1-1.1C94.2,71.6,94.7,72,94.7,72.6z"/>
			<path d="M40.4,81.7c0,0.6-0.5,1.1-1.1,1.1c-0.6,0-1.1-0.5-1.1-1.1c0-0.6,0.5-1.1,1.1-1.1C39.9,80.6,40.4,81.1,40.4,81.7z"/>
			<circle cx="48.4" cy="81.7" r="1.1"/>
			<circle cx="57.4" cy="81.7" r="1.1"/>
			<circle cx="66.5" cy="81.7" r="1.1"/>
			<path d="M76.6,81.7c0,0.6-0.5,1.1-1.1,1.1c-0.6,0-1.1-0.5-1.1-1.1c0-0.6,0.5-1.1,1.1-1.1C76.1,80.6,76.6,81.1,76.6,81.7z"/>
			<path d="M85.6,81.7c0,0.6-0.5,1.1-1.1,1.1c-0.6,0-1.1-0.5-1.1-1.1c0-0.6,0.5-1.1,1.1-1.1C85.2,80.6,85.6,81.1,85.6,81.7z"/>
			<path d="M94.7,81.7c0,0.6-0.5,1.1-1.1,1.1c-0.6,0-1.1-0.5-1.1-1.1c0-0.6,0.5-1.1,1.1-1.1C94.2,80.6,94.7,81.1,94.7,81.7z"/>
			<path d="M40.4,90.7c0,0.6-0.5,1.1-1.1,1.1c-0.6,0-1.1-0.5-1.1-1.1c0-0.6,0.5-1.1,1.1-1.1C39.9,89.7,40.4,90.1,40.4,90.7z"/>
			<path d="M49.4,90.7c0,0.6-0.5,1.1-1.1,1.1c-0.6,0-1.1-0.5-1.1-1.1c0-0.6,0.5-1.1,1.1-1.1C49,89.7,49.4,90.1,49.4,90.7z"/>
			<path d="M58.5,90.7c0,0.6-0.5,1.1-1.1,1.1c-0.6,0-1.1-0.5-1.1-1.1c0-0.6,0.5-1.1,1.1-1.1C58,89.7,58.5,90.1,58.5,90.7z"/>
			<path d="M67.5,90.7c0,0.6-0.5,1.1-1.1,1.1c-0.6,0-1.1-0.5-1.1-1.1c0-0.6,0.5-1.1,1.1-1.1C67.1,89.7,67.5,90.1,67.5,90.7z"/>
			<path d="M76.6,90.7c0,0.6-0.5,1.1-1.1,1.1c-0.6,0-1.1-0.5-1.1-1.1c0-0.6,0.5-1.1,1.1-1.1C76.1,89.7,76.6,90.1,76.6,90.7z"/>
			<path d="M85.6,90.7c0,0.6-0.5,1.1-1.1,1.1c-0.6,0-1.1-0.5-1.1-1.1c0-0.6,0.5-1.1,1.1-1.1C85.2,89.7,85.6,90.1,85.6,90.7z"/>
			<path d="M94.7,90.7c0,0.6-0.5,1.1-1.1,1.1c-0.6,0-1.1-0.5-1.1-1.1c0-0.6,0.5-1.1,1.1-1.1C94.2,89.7,94.7,90.1,94.7,90.7z"/>
			<path d="M103.7,36.4c0,0.6-0.5,1.1-1.1,1.1c-0.6,0-1.1-0.5-1.1-1.1c0-0.6,0.5-1.1,1.1-1.1C103.2,35.4,103.7,35.8,103.7,36.4z"/>
			<path d="M112.8,36.4c0,0.6-0.5,1.1-1.1,1.1c-0.6,0-1.1-0.5-1.1-1.1c0-0.6,0.5-1.1,1.1-1.1C112.3,35.4,112.8,35.8,112.8,36.4z"/>
			<path d="M121.8,36.4c0,0.6-0.5,1.1-1.1,1.1c-0.6,0-1.1-0.5-1.1-1.1c0-0.6,0.5-1.1,1.1-1.1C121.3,35.4,121.8,35.8,121.8,36.4z"/>
			<path d="M130.9,36.4c0,0.6-0.5,1.1-1.1,1.1c-0.6,0-1.1-0.5-1.1-1.1c0-0.6,0.5-1.1,1.1-1.1C130.4,35.4,130.9,35.8,130.9,36.4z"/>
			<path d="M139.9,36.4c0,0.6-0.5,1.1-1.1,1.1c-0.6,0-1.1-0.5-1.1-1.1c0-0.6,0.5-1.1,1.1-1.1C139.4,35.4,139.9,35.8,139.9,36.4z"/>
			<path d="M149,36.4c0,0.6-0.5,1.1-1.1,1.1c-0.6,0-1.1-0.5-1.1-1.1c0-0.6,0.5-1.1,1.1-1.1C148.5,35.4,149,35.8,149,36.4z"/>
			<path d="M103.7,45.5c0,0.6-0.5,1.1-1.1,1.1c-0.6,0-1.1-0.5-1.1-1.1s0.5-1.1,1.1-1.1C103.2,44.4,103.7,44.9,103.7,45.5z"/>
			<path d="M112.8,45.5c0,0.6-0.5,1.1-1.1,1.1c-0.6,0-1.1-0.5-1.1-1.1s0.5-1.1,1.1-1.1C112.3,44.4,112.8,44.9,112.8,45.5z"/>
			<path d="M121.8,45.5c0,0.6-0.5,1.1-1.1,1.1c-0.6,0-1.1-0.5-1.1-1.1s0.5-1.1,1.1-1.1C121.3,44.4,121.8,44.9,121.8,45.5z"/>
			<path d="M130.9,45.5c0,0.6-0.5,1.1-1.1,1.1c-0.6,0-1.1-0.5-1.1-1.1s0.5-1.1,1.1-1.1C130.4,44.4,130.9,44.9,130.9,45.5z"/>
			<path d="M139.9,45.5c0,0.6-0.5,1.1-1.1,1.1c-0.6,0-1.1-0.5-1.1-1.1s0.5-1.1,1.1-1.1C139.4,44.4,139.9,44.9,139.9,45.5z"/>
			<path d="M149,45.5c0,0.6-0.5,1.1-1.1,1.1c-0.6,0-1.1-0.5-1.1-1.1s0.5-1.1,1.1-1.1C148.5,44.4,149,44.9,149,45.5z"/>
			<path d="M103.7,54.5c0,0.6-0.5,1.1-1.1,1.1c-0.6,0-1.1-0.5-1.1-1.1c0-0.6,0.5-1.1,1.1-1.1C103.2,53.5,103.7,53.9,103.7,54.5z"/>
			<path d="M112.8,54.5c0,0.6-0.5,1.1-1.1,1.1c-0.6,0-1.1-0.5-1.1-1.1c0-0.6,0.5-1.1,1.1-1.1C112.3,53.5,112.8,53.9,112.8,54.5z"/>
			<path d="M121.8,54.5c0,0.6-0.5,1.1-1.1,1.1c-0.6,0-1.1-0.5-1.1-1.1c0-0.6,0.5-1.1,1.1-1.1C121.3,53.5,121.8,53.9,121.8,54.5z"/>
			<path d="M130.9,54.5c0,0.6-0.5,1.1-1.1,1.1c-0.6,0-1.1-0.5-1.1-1.1c0-0.6,0.5-1.1,1.1-1.1C130.4,53.5,130.9,53.9,130.9,54.5z"/>
			<path d="M139.9,54.5c0,0.6-0.5,1.1-1.1,1.1c-0.6,0-1.1-0.5-1.1-1.1c0-0.6,0.5-1.1,1.1-1.1C139.4,53.5,139.9,53.9,139.9,54.5z"/>
			<path d="M149,54.5c0,0.6-0.5,1.1-1.1,1.1c-0.6,0-1.1-0.5-1.1-1.1c0-0.6,0.5-1.1,1.1-1.1C148.5,53.5,149,53.9,149,54.5z"/>
			<path d="M103.7,63.6c0,0.6-0.5,1.1-1.1,1.1c-0.6,0-1.1-0.5-1.1-1.1c0-0.6,0.5-1.1,1.1-1.1C103.2,62.5,103.7,63,103.7,63.6z"/>
			<path d="M112.8,63.6c0,0.6-0.5,1.1-1.1,1.1c-0.6,0-1.1-0.5-1.1-1.1c0-0.6,0.5-1.1,1.1-1.1C112.3,62.5,112.8,63,112.8,63.6z"/>
			<path d="M121.8,63.6c0,0.6-0.5,1.1-1.1,1.1c-0.6,0-1.1-0.5-1.1-1.1c0-0.6,0.5-1.1,1.1-1.1C121.3,62.5,121.8,63,121.8,63.6z"/>
			<path d="M130.9,63.6c0,0.6-0.5,1.1-1.1,1.1c-0.6,0-1.1-0.5-1.1-1.1c0-0.6,0.5-1.1,1.1-1.1C130.4,62.5,130.9,63,130.9,63.6z"/>
			<path d="M139.9,63.6c0,0.6-0.5,1.1-1.1,1.1c-0.6,0-1.1-0.5-1.1-1.1c0-0.6,0.5-1.1,1.1-1.1C139.4,62.5,139.9,63,139.9,63.6z"/>
			<path d="M149,63.6c0,0.6-0.5,1.1-1.1,1.1c-0.6,0-1.1-0.5-1.1-1.1c0-0.6,0.5-1.1,1.1-1.1C148.5,62.5,149,63,149,63.6z"/>
			<path d="M103.7,72.6c0,0.6-0.5,1.1-1.1,1.1c-0.6,0-1.1-0.5-1.1-1.1s0.5-1.1,1.1-1.1C103.2,71.6,103.7,72,103.7,72.6z"/>
			<path d="M112.8,72.6c0,0.6-0.5,1.1-1.1,1.1c-0.6,0-1.1-0.5-1.1-1.1s0.5-1.1,1.1-1.1C112.3,71.6,112.8,72,112.8,72.6z"/>
			<path d="M121.8,72.6c0,0.6-0.5,1.1-1.1,1.1c-0.6,0-1.1-0.5-1.1-1.1s0.5-1.1,1.1-1.1C121.3,71.6,121.8,72,121.8,72.6z"/>
			<path d="M130.9,72.6c0,0.6-0.5,1.1-1.1,1.1c-0.6,0-1.1-0.5-1.1-1.1s0.5-1.1,1.1-1.1C130.4,71.6,130.9,72,130.9,72.6z"/>
			<path d="M139.9,72.6c0,0.6-0.5,1.1-1.1,1.1c-0.6,0-1.1-0.5-1.1-1.1s0.5-1.1,1.1-1.1C139.4,71.6,139.9,72,139.9,72.6z"/>
			<path d="M149,72.6c0,0.6-0.5,1.1-1.1,1.1c-0.6,0-1.1-0.5-1.1-1.1s0.5-1.1,1.1-1.1C148.5,71.6,149,72,149,72.6z"/>
			<path d="M103.7,81.7c0,0.6-0.5,1.1-1.1,1.1c-0.6,0-1.1-0.5-1.1-1.1c0-0.6,0.5-1.1,1.1-1.1C103.2,80.6,103.7,81.1,103.7,81.7z"/>
			<path d="M112.8,81.7c0,0.6-0.5,1.1-1.1,1.1c-0.6,0-1.1-0.5-1.1-1.1c0-0.6,0.5-1.1,1.1-1.1C112.3,80.6,112.8,81.1,112.8,81.7z"/>
			<path d="M121.8,81.7c0,0.6-0.5,1.1-1.1,1.1c-0.6,0-1.1-0.5-1.1-1.1c0-0.6,0.5-1.1,1.1-1.1C121.3,80.6,121.8,81.1,121.8,81.7z"/>
			<path d="M130.9,81.7c0,0.6-0.5,1.1-1.1,1.1c-0.6,0-1.1-0.5-1.1-1.1c0-0.6,0.5-1.1,1.1-1.1C130.4,80.6,130.9,81.1,130.9,81.7z"/>
			<circle cx="138.8" cy="81.7" r="1.1"/>
			<circle cx="147.9" cy="81.7" r="1.1"/>
			<path d="M103.7,90.7c0,0.6-0.5,1.1-1.1,1.1c-0.6,0-1.1-0.5-1.1-1.1c0-0.6,0.5-1.1,1.1-1.1C103.2,89.7,103.7,90.1,103.7,90.7z"/>
			<path d="M112.8,90.7c0,0.6-0.5,1.1-1.1,1.1c-0.6,0-1.1-0.5-1.1-1.1c0-0.6,0.5-1.1,1.1-1.1C112.3,89.7,112.8,90.1,112.8,90.7z"/>
			<path d="M121.8,90.7c0,0.6-0.5,1.1-1.1,1.1c-0.6,0-1.1-0.5-1.1-1.1c0-0.6,0.5-1.1,1.1-1.1C121.3,89.7,121.8,90.1,121.8,90.7z"/>
			<path d="M130.9,90.7c0,0.6-0.5,1.1-1.1,1.1c-0.6,0-1.1-0.5-1.1-1.1c0-0.6,0.5-1.1,1.1-1.1C130.4,89.7,130.9,90.1,130.9,90.7z"/>
			<path d="M139.9,90.7c0,0.6-0.5,1.1-1.1,1.1c-0.6,0-1.1-0.5-1.1-1.1c0-0.6,0.5-1.1,1.1-1.1C139.4,89.7,139.9,90.1,139.9,90.7z"/>
			<path d="M149,90.7c0,0.6-0.5,1.1-1.1,1.1c-0.6,0-1.1-0.5-1.1-1.1c0-0.6,0.5-1.1,1.1-1.1C148.5,89.7,149,90.1,149,90.7z"/>
			<path d="M40.4,99.8c0,0.6-0.5,1.1-1.1,1.1c-0.6,0-1.1-0.5-1.1-1.1c0-0.6,0.5-1.1,1.1-1.1C39.9,98.7,40.4,99.2,40.4,99.8z"/>
			<path d="M49.4,99.8c0,0.6-0.5,1.1-1.1,1.1c-0.6,0-1.1-0.5-1.1-1.1c0-0.6,0.5-1.1,1.1-1.1C49,98.7,49.4,99.2,49.4,99.8z"/>
			<path d="M58.5,99.8c0,0.6-0.5,1.1-1.1,1.1c-0.6,0-1.1-0.5-1.1-1.1c0-0.6,0.5-1.1,1.1-1.1C58,98.7,58.5,99.2,58.5,99.8z"/>
			<path d="M67.5,99.8c0,0.6-0.5,1.1-1.1,1.1c-0.6,0-1.1-0.5-1.1-1.1c0-0.6,0.5-1.1,1.1-1.1C67.1,98.7,67.5,99.2,67.5,99.8z"/>
			<path d="M76.6,99.8c0,0.6-0.5,1.1-1.1,1.1c-0.6,0-1.1-0.5-1.1-1.1c0-0.6,0.5-1.1,1.1-1.1C76.1,98.7,76.6,99.2,76.6,99.8z"/>
			<path d="M85.6,99.8c0,0.6-0.5,1.1-1.1,1.1c-0.6,0-1.1-0.5-1.1-1.1c0-0.6,0.5-1.1,1.1-1.1C85.2,98.7,85.6,99.2,85.6,99.8z"/>
			<path d="M94.7,99.8c0,0.6-0.5,1.1-1.1,1.1c-0.6,0-1.1-0.5-1.1-1.1c0-0.6,0.5-1.1,1.1-1.1C94.2,98.7,94.7,99.2,94.7,99.8z"/>
			<path d="M40.4,108.8c0,0.6-0.5,1.1-1.1,1.1c-0.6,0-1.1-0.5-1.1-1.1c0-0.6,0.5-1.1,1.1-1.1C39.9,107.7,40.4,108.2,40.4,108.8z"/>
			<circle cx="48.4" cy="108.8" r="1.1"/>
			<circle cx="57.4" cy="108.8" r="1.1"/>
			<circle cx="66.5" cy="108.8" r="1.1"/>
			<path d="M76.6,108.8c0,0.6-0.5,1.1-1.1,1.1c-0.6,0-1.1-0.5-1.1-1.1c0-0.6,0.5-1.1,1.1-1.1C76.1,107.7,76.6,108.2,76.6,108.8z"/>
			<path d="M85.6,108.8c0,0.6-0.5,1.1-1.1,1.1c-0.6,0-1.1-0.5-1.1-1.1c0-0.6,0.5-1.1,1.1-1.1C85.2,107.7,85.6,108.2,85.6,108.8z"/>
			<path d="M94.7,108.8c0,0.6-0.5,1.1-1.1,1.1c-0.6,0-1.1-0.5-1.1-1.1c0-0.6,0.5-1.1,1.1-1.1C94.2,107.7,94.7,108.2,94.7,108.8z"/>
			<path d="M40.4,117.9c0,0.6-0.5,1.1-1.1,1.1c-0.6,0-1.1-0.5-1.1-1.1c0-0.6,0.5-1.1,1.1-1.1C39.9,116.8,40.4,117.3,40.4,117.9z"/>
			<circle cx="48.4" cy="117.9" r="1.1"/>
			<circle cx="57.4" cy="117.9" r="1.1"/>
			<circle cx="66.5" cy="117.9" r="1.1"/>
			<path d="M76.6,117.9c0,0.6-0.5,1.1-1.1,1.1c-0.6,0-1.1-0.5-1.1-1.1c0-0.6,0.5-1.1,1.1-1.1C76.1,116.8,76.6,117.3,76.6,117.9z"/>
			<path d="M85.6,117.9c0,0.6-0.5,1.1-1.1,1.1c-0.6,0-1.1-0.5-1.1-1.1c0-0.6,0.5-1.1,1.1-1.1C85.2,116.8,85.6,117.3,85.6,117.9z"/>
			<path d="M94.7,117.9c0,0.6-0.5,1.1-1.1,1.1c-0.6,0-1.1-0.5-1.1-1.1c0-0.6,0.5-1.1,1.1-1.1C94.2,116.8,94.7,117.3,94.7,117.9z"/>
			<path d="M40.4,126.9c0,0.6-0.5,1.1-1.1,1.1c-0.6,0-1.1-0.5-1.1-1.1c0-0.6,0.5-1.1,1.1-1.1C39.9,125.8,40.4,126.3,40.4,126.9z"/>
			<path d="M49.4,126.9c0,0.6-0.5,1.1-1.1,1.1c-0.6,0-1.1-0.5-1.1-1.1c0-0.6,0.5-1.1,1.1-1.1C49,125.8,49.4,126.3,49.4,126.9z"/>
			<path d="M58.5,126.9c0,0.6-0.5,1.1-1.1,1.1c-0.6,0-1.1-0.5-1.1-1.1c0-0.6,0.5-1.1,1.1-1.1C58,125.8,58.5,126.3,58.5,126.9z"/>
			<path d="M67.5,126.9c0,0.6-0.5,1.1-1.1,1.1c-0.6,0-1.1-0.5-1.1-1.1c0-0.6,0.5-1.1,1.1-1.1C67.1,125.8,67.5,126.3,67.5,126.9z"/>
			<path d="M76.6,126.9c0,0.6-0.5,1.1-1.1,1.1c-0.6,0-1.1-0.5-1.1-1.1c0-0.6,0.5-1.1,1.1-1.1C76.1,125.8,76.6,126.3,76.6,126.9z"/>
			<path d="M85.6,126.9c0,0.6-0.5,1.1-1.1,1.1c-0.6,0-1.1-0.5-1.1-1.1c0-0.6,0.5-1.1,1.1-1.1C85.2,125.8,85.6,126.3,85.6,126.9z"/>
			<path d="M94.7,126.9c0,0.6-0.5,1.1-1.1,1.1c-0.6,0-1.1-0.5-1.1-1.1c0-0.6,0.5-1.1,1.1-1.1C94.2,125.8,94.7,126.3,94.7,126.9z"/>
			<path d="M40.4,136c0,0.6-0.5,1.1-1.1,1.1c-0.6,0-1.1-0.5-1.1-1.1c0-0.6,0.5-1.1,1.1-1.1C39.9,134.9,40.4,135.4,40.4,136z"/>
			<path d="M49.4,136c0,0.6-0.5,1.1-1.1,1.1c-0.6,0-1.1-0.5-1.1-1.1c0-0.6,0.5-1.1,1.1-1.1C49,134.9,49.4,135.4,49.4,136z"/>
			<path d="M58.5,136c0,0.6-0.5,1.1-1.1,1.1c-0.6,0-1.1-0.5-1.1-1.1c0-0.6,0.5-1.1,1.1-1.1C58,134.9,58.5,135.4,58.5,136z"/>
			<path d="M67.5,136c0,0.6-0.5,1.1-1.1,1.1c-0.6,0-1.1-0.5-1.1-1.1c0-0.6,0.5-1.1,1.1-1.1C67.1,134.9,67.5,135.4,67.5,136z"/>
			<path d="M76.6,136c0,0.6-0.5,1.1-1.1,1.1c-0.6,0-1.1-0.5-1.1-1.1c0-0.6,0.5-1.1,1.1-1.1C76.1,134.9,76.6,135.4,76.6,136z"/>
			<path d="M85.6,136c0,0.6-0.5,1.1-1.1,1.1c-0.6,0-1.1-0.5-1.1-1.1c0-0.6,0.5-1.1,1.1-1.1C85.2,134.9,85.6,135.4,85.6,136z"/>
			<path d="M94.7,136c0,0.6-0.5,1.1-1.1,1.1c-0.6,0-1.1-0.5-1.1-1.1c0-0.6,0.5-1.1,1.1-1.1C94.2,134.9,94.7,135.4,94.7,136z"/>
			<path d="M40.4,145c0,0.6-0.5,1.1-1.1,1.1c-0.6,0-1.1-0.5-1.1-1.1c0-0.6,0.5-1.1,1.1-1.1C39.9,143.9,40.4,144.4,40.4,145z"/>
			<path d="M49.4,145c0,0.6-0.5,1.1-1.1,1.1c-0.6,0-1.1-0.5-1.1-1.1c0-0.6,0.5-1.1,1.1-1.1C49,143.9,49.4,144.4,49.4,145z"/>
			<path d="M58.5,145c0,0.6-0.5,1.1-1.1,1.1c-0.6,0-1.1-0.5-1.1-1.1c0-0.6,0.5-1.1,1.1-1.1C58,143.9,58.5,144.4,58.5,145z"/>
			<path d="M67.5,145c0,0.6-0.5,1.1-1.1,1.1c-0.6,0-1.1-0.5-1.1-1.1c0-0.6,0.5-1.1,1.1-1.1C67.1,143.9,67.5,144.4,67.5,145z"/>
			<path d="M76.6,145c0,0.6-0.5,1.1-1.1,1.1c-0.6,0-1.1-0.5-1.1-1.1c0-0.6,0.5-1.1,1.1-1.1C76.1,143.9,76.6,144.4,76.6,145z"/>
			<path d="M85.6,145c0,0.6-0.5,1.1-1.1,1.1c-0.6,0-1.1-0.5-1.1-1.1c0-0.6,0.5-1.1,1.1-1.1C85.2,143.9,85.6,144.4,85.6,145z"/>
			<path d="M94.7,145c0,0.6-0.5,1.1-1.1,1.1c-0.6,0-1.1-0.5-1.1-1.1c0-0.6,0.5-1.1,1.1-1.1C94.2,143.9,94.7,144.4,94.7,145z"/>
			<path d="M103.7,99.8c0,0.6-0.5,1.1-1.1,1.1c-0.6,0-1.1-0.5-1.1-1.1c0-0.6,0.5-1.1,1.1-1.1C103.2,98.7,103.7,99.2,103.7,99.8z"/>
			<path d="M112.8,99.8c0,0.6-0.5,1.1-1.1,1.1c-0.6,0-1.1-0.5-1.1-1.1c0-0.6,0.5-1.1,1.1-1.1C112.3,98.7,112.8,99.2,112.8,99.8z"/>
			<path d="M121.8,99.8c0,0.6-0.5,1.1-1.1,1.1c-0.6,0-1.1-0.5-1.1-1.1c0-0.6,0.5-1.1,1.1-1.1C121.3,98.7,121.8,99.2,121.8,99.8z"/>
			<path d="M130.9,99.8c0,0.6-0.5,1.1-1.1,1.1c-0.6,0-1.1-0.5-1.1-1.1c0-0.6,0.5-1.1,1.1-1.1C130.4,98.7,130.9,99.2,130.9,99.8z"/>
			<path d="M139.9,99.8c0,0.6-0.5,1.1-1.1,1.1c-0.6,0-1.1-0.5-1.1-1.1c0-0.6,0.5-1.1,1.1-1.1C139.4,98.7,139.9,99.2,139.9,99.8z"/>
			<path d="M149,99.8c0,0.6-0.5,1.1-1.1,1.1c-0.6,0-1.1-0.5-1.1-1.1c0-0.6,0.5-1.1,1.1-1.1C148.5,98.7,149,99.2,149,99.8z"/>
			<path d="M103.7,108.8c0,0.6-0.5,1.1-1.1,1.1c-0.6,0-1.1-0.5-1.1-1.1c0-0.6,0.5-1.1,1.1-1.1C103.2,107.7,103.7,108.2,103.7,108.8z
				"/>
			<path d="M112.8,108.8c0,0.6-0.5,1.1-1.1,1.1c-0.6,0-1.1-0.5-1.1-1.1c0-0.6,0.5-1.1,1.1-1.1C112.3,107.7,112.8,108.2,112.8,108.8z
				"/>
			<path d="M121.8,108.8c0,0.6-0.5,1.1-1.1,1.1c-0.6,0-1.1-0.5-1.1-1.1c0-0.6,0.5-1.1,1.1-1.1C121.3,107.7,121.8,108.2,121.8,108.8z
				"/>
			<path d="M130.9,108.8c0,0.6-0.5,1.1-1.1,1.1c-0.6,0-1.1-0.5-1.1-1.1c0-0.6,0.5-1.1,1.1-1.1C130.4,107.7,130.9,108.2,130.9,108.8z
				"/>
			<circle cx="138.8" cy="108.8" r="1.1"/>
			<circle cx="147.9" cy="108.8" r="1.1"/>
			<path d="M103.7,117.9c0,0.6-0.5,1.1-1.1,1.1c-0.6,0-1.1-0.5-1.1-1.1c0-0.6,0.5-1.1,1.1-1.1C103.2,116.8,103.7,117.3,103.7,117.9z
				"/>
			<path d="M112.8,117.9c0,0.6-0.5,1.1-1.1,1.1c-0.6,0-1.1-0.5-1.1-1.1c0-0.6,0.5-1.1,1.1-1.1C112.3,116.8,112.8,117.3,112.8,117.9z
				"/>
			<path d="M121.8,117.9c0,0.6-0.5,1.1-1.1,1.1c-0.6,0-1.1-0.5-1.1-1.1c0-0.6,0.5-1.1,1.1-1.1C121.3,116.8,121.8,117.3,121.8,117.9z
				"/>
			<path d="M130.9,117.9c0,0.6-0.5,1.1-1.1,1.1c-0.6,0-1.1-0.5-1.1-1.1c0-0.6,0.5-1.1,1.1-1.1C130.4,116.8,130.9,117.3,130.9,117.9z
				"/>
			<circle cx="138.8" cy="117.9" r="1.1"/>
			<circle cx="147.9" cy="117.9" r="1.1"/>
			<path d="M103.7,126.9c0,0.6-0.5,1.1-1.1,1.1c-0.6,0-1.1-0.5-1.1-1.1c0-0.6,0.5-1.1,1.1-1.1C103.2,125.8,103.7,126.3,103.7,126.9z
				"/>
			<path d="M112.8,126.9c0,0.6-0.5,1.1-1.1,1.1c-0.6,0-1.1-0.5-1.1-1.1c0-0.6,0.5-1.1,1.1-1.1C112.3,125.8,112.8,126.3,112.8,126.9z
				"/>
			<path d="M121.8,126.9c0,0.6-0.5,1.1-1.1,1.1c-0.6,0-1.1-0.5-1.1-1.1c0-0.6,0.5-1.1,1.1-1.1C121.3,125.8,121.8,126.3,121.8,126.9z
				"/>
			<path d="M130.9,126.9c0,0.6-0.5,1.1-1.1,1.1c-0.6,0-1.1-0.5-1.1-1.1c0-0.6,0.5-1.1,1.1-1.1C130.4,125.8,130.9,126.3,130.9,126.9z
				"/>
			<path d="M139.9,126.9c0,0.6-0.5,1.1-1.1,1.1c-0.6,0-1.1-0.5-1.1-1.1c0-0.6,0.5-1.1,1.1-1.1C139.4,125.8,139.9,126.3,139.9,126.9z
				"/>
			<path d="M149,126.9c0,0.6-0.5,1.1-1.1,1.1c-0.6,0-1.1-0.5-1.1-1.1c0-0.6,0.5-1.1,1.1-1.1C148.5,125.8,149,126.3,149,126.9z"/>
			<path d="M103.7,136c0,0.6-0.5,1.1-1.1,1.1c-0.6,0-1.1-0.5-1.1-1.1c0-0.6,0.5-1.1,1.1-1.1C103.2,134.9,103.7,135.4,103.7,136z"/>
			<path d="M112.8,136c0,0.6-0.5,1.1-1.1,1.1c-0.6,0-1.1-0.5-1.1-1.1c0-0.6,0.5-1.1,1.1-1.1C112.3,134.9,112.8,135.4,112.8,136z"/>
			<path d="M121.8,136c0,0.6-0.5,1.1-1.1,1.1c-0.6,0-1.1-0.5-1.1-1.1c0-0.6,0.5-1.1,1.1-1.1C121.3,134.9,121.8,135.4,121.8,136z"/>
			<path d="M130.9,136c0,0.6-0.5,1.1-1.1,1.1c-0.6,0-1.1-0.5-1.1-1.1c0-0.6,0.5-1.1,1.1-1.1C130.4,134.9,130.9,135.4,130.9,136z"/>
			<path d="M139.9,136c0,0.6-0.5,1.1-1.1,1.1c-0.6,0-1.1-0.5-1.1-1.1c0-0.6,0.5-1.1,1.1-1.1C139.4,134.9,139.9,135.4,139.9,136z"/>
			<path d="M149,136c0,0.6-0.5,1.1-1.1,1.1c-0.6,0-1.1-0.5-1.1-1.1c0-0.6,0.5-1.1,1.1-1.1C148.5,134.9,149,135.4,149,136z"/>
			<path d="M103.7,145c0,0.6-0.5,1.1-1.1,1.1c-0.6,0-1.1-0.5-1.1-1.1c0-0.6,0.5-1.1,1.1-1.1C103.2,143.9,103.7,144.4,103.7,145z"/>
			<path d="M112.8,145c0,0.6-0.5,1.1-1.1,1.1c-0.6,0-1.1-0.5-1.1-1.1c0-0.6,0.5-1.1,1.1-1.1C112.3,143.9,112.8,144.4,112.8,145z"/>
			<path d="M121.8,145c0,0.6-0.5,1.1-1.1,1.1c-0.6,0-1.1-0.5-1.1-1.1c0-0.6,0.5-1.1,1.1-1.1C121.3,143.9,121.8,144.4,121.8,145z"/>
			<path d="M130.9,145c0,0.6-0.5,1.1-1.1,1.1c-0.6,0-1.1-0.5-1.1-1.1c0-0.6,0.5-1.1,1.1-1.1C130.4,143.9,130.9,144.4,130.9,145z"/>
			<path d="M139.9,145c0,0.6-0.5,1.1-1.1,1.1c-0.6,0-1.1-0.5-1.1-1.1c0-0.6,0.5-1.1,1.1-1.1C139.4,143.9,139.9,144.4,139.9,145z"/>
			<path d="M149,145c0,0.6-0.5,1.1-1.1,1.1c-0.6,0-1.1-0.5-1.1-1.1c0-0.6,0.5-1.1,1.1-1.1C148.5,143.9,149,144.4,149,145z"/>
		</g>
		<g>
			<path d="M410,307.9c0,1-0.8,1.8-1.8,1.8c-1,0-1.8-0.8-1.8-1.8c0-1,0.8-1.8,1.8-1.8C409.2,306.1,410,306.9,410,307.9z"/>
			<path d="M425.1,307.9c0,1-0.8,1.8-1.8,1.8c-1,0-1.8-0.8-1.8-1.8c0-1,0.8-1.8,1.8-1.8C424.3,306.1,425.1,306.9,425.1,307.9z"/>
			<path d="M440.2,307.9c0,1-0.8,1.8-1.8,1.8c-1,0-1.8-0.8-1.8-1.8c0-1,0.8-1.8,1.8-1.8C439.4,306.1,440.2,306.9,440.2,307.9z"/>
			<path d="M455.2,307.9c0,1-0.8,1.8-1.8,1.8s-1.8-0.8-1.8-1.8c0-1,0.8-1.8,1.8-1.8S455.2,306.9,455.2,307.9z"/>
			<path d="M470.3,307.9c0,1-0.8,1.8-1.8,1.8c-1,0-1.8-0.8-1.8-1.8c0-1,0.8-1.8,1.8-1.8C469.5,306.1,470.3,306.9,470.3,307.9z"/>
			<path d="M485.3,307.9c0,1-0.8,1.8-1.8,1.8c-1,0-1.8-0.8-1.8-1.8c0-1,0.8-1.8,1.8-1.8C484.5,306.1,485.3,306.9,485.3,307.9z"/>
			<path d="M500.4,307.9c0,1-0.8,1.8-1.8,1.8c-1,0-1.8-0.8-1.8-1.8c0-1,0.8-1.8,1.8-1.8C499.6,306.1,500.4,306.9,500.4,307.9z"/>
			<path d="M410,323c0,1-0.8,1.8-1.8,1.8c-1,0-1.8-0.8-1.8-1.8c0-1,0.8-1.8,1.8-1.8C409.2,321.2,410,322,410,323z"/>
			<path d="M425.1,323c0,1-0.8,1.8-1.8,1.8c-1,0-1.8-0.8-1.8-1.8c0-1,0.8-1.8,1.8-1.8C424.3,321.2,425.1,322,425.1,323z"/>
			<path d="M440.2,323c0,1-0.8,1.8-1.8,1.8c-1,0-1.8-0.8-1.8-1.8c0-1,0.8-1.8,1.8-1.8C439.4,321.2,440.2,322,440.2,323z"/>
			<path d="M455.2,323c0,1-0.8,1.8-1.8,1.8s-1.8-0.8-1.8-1.8c0-1,0.8-1.8,1.8-1.8S455.2,322,455.2,323z"/>
			<path d="M470.3,323c0,1-0.8,1.8-1.8,1.8c-1,0-1.8-0.8-1.8-1.8c0-1,0.8-1.8,1.8-1.8C469.5,321.2,470.3,322,470.3,323z"/>
			<path d="M485.3,323c0,1-0.8,1.8-1.8,1.8c-1,0-1.8-0.8-1.8-1.8c0-1,0.8-1.8,1.8-1.8C484.5,321.2,485.3,322,485.3,323z"/>
			<path d="M500.4,323c0,1-0.8,1.8-1.8,1.8c-1,0-1.8-0.8-1.8-1.8c0-1,0.8-1.8,1.8-1.8C499.6,321.2,500.4,322,500.4,323z"/>
			<path d="M410,338c0,1-0.8,1.8-1.8,1.8c-1,0-1.8-0.8-1.8-1.8c0-1,0.8-1.8,1.8-1.8C409.2,336.2,410,337.1,410,338z"/>
			<path d="M425.1,338c0,1-0.8,1.8-1.8,1.8c-1,0-1.8-0.8-1.8-1.8c0-1,0.8-1.8,1.8-1.8C424.3,336.2,425.1,337.1,425.1,338z"/>
			<path d="M440.2,338c0,1-0.8,1.8-1.8,1.8c-1,0-1.8-0.8-1.8-1.8c0-1,0.8-1.8,1.8-1.8C439.4,336.2,440.2,337.1,440.2,338z"/>
			<path d="M455.2,338c0,1-0.8,1.8-1.8,1.8s-1.8-0.8-1.8-1.8c0-1,0.8-1.8,1.8-1.8S455.2,337.1,455.2,338z"/>
			<path d="M470.3,338c0,1-0.8,1.8-1.8,1.8c-1,0-1.8-0.8-1.8-1.8c0-1,0.8-1.8,1.8-1.8C469.5,336.2,470.3,337.1,470.3,338z"/>
			<path d="M485.3,338c0,1-0.8,1.8-1.8,1.8c-1,0-1.8-0.8-1.8-1.8c0-1,0.8-1.8,1.8-1.8C484.5,336.2,485.3,337.1,485.3,338z"/>
			<path d="M500.4,338c0,1-0.8,1.8-1.8,1.8c-1,0-1.8-0.8-1.8-1.8c0-1,0.8-1.8,1.8-1.8C499.6,336.2,500.4,337.1,500.4,338z"/>
			<path d="M410,353.1c0,1-0.8,1.8-1.8,1.8c-1,0-1.8-0.8-1.8-1.8c0-1,0.8-1.8,1.8-1.8C409.2,351.3,410,352.1,410,353.1z"/>
			<path d="M425.1,353.1c0,1-0.8,1.8-1.8,1.8c-1,0-1.8-0.8-1.8-1.8c0-1,0.8-1.8,1.8-1.8C424.3,351.3,425.1,352.1,425.1,353.1z"/>
			<path d="M440.2,353.1c0,1-0.8,1.8-1.8,1.8c-1,0-1.8-0.8-1.8-1.8c0-1,0.8-1.8,1.8-1.8C439.4,351.3,440.2,352.1,440.2,353.1z"/>
			<path d="M455.2,353.1c0,1-0.8,1.8-1.8,1.8s-1.8-0.8-1.8-1.8c0-1,0.8-1.8,1.8-1.8S455.2,352.1,455.2,353.1z"/>
			<path d="M470.3,353.1c0,1-0.8,1.8-1.8,1.8c-1,0-1.8-0.8-1.8-1.8c0-1,0.8-1.8,1.8-1.8C469.5,351.3,470.3,352.1,470.3,353.1z"/>
			<path d="M485.3,353.1c0,1-0.8,1.8-1.8,1.8c-1,0-1.8-0.8-1.8-1.8c0-1,0.8-1.8,1.8-1.8C484.5,351.3,485.3,352.1,485.3,353.1z"/>
			<path d="M500.4,353.1c0,1-0.8,1.8-1.8,1.8c-1,0-1.8-0.8-1.8-1.8c0-1,0.8-1.8,1.8-1.8C499.6,351.3,500.4,352.1,500.4,353.1z"/>
			<path d="M410,368.2c0,1-0.8,1.8-1.8,1.8c-1,0-1.8-0.8-1.8-1.8c0-1,0.8-1.8,1.8-1.8C409.2,366.4,410,367.2,410,368.2z"/>
			<path d="M425.1,368.2c0,1-0.8,1.8-1.8,1.8c-1,0-1.8-0.8-1.8-1.8c0-1,0.8-1.8,1.8-1.8C424.3,366.4,425.1,367.2,425.1,368.2z"/>
			<path d="M440.2,368.2c0,1-0.8,1.8-1.8,1.8c-1,0-1.8-0.8-1.8-1.8c0-1,0.8-1.8,1.8-1.8C439.4,366.4,440.2,367.2,440.2,368.2z"/>
			<path d="M455.2,368.2c0,1-0.8,1.8-1.8,1.8s-1.8-0.8-1.8-1.8c0-1,0.8-1.8,1.8-1.8S455.2,367.2,455.2,368.2z"/>
			<path d="M470.3,368.2c0,1-0.8,1.8-1.8,1.8c-1,0-1.8-0.8-1.8-1.8c0-1,0.8-1.8,1.8-1.8C469.5,366.4,470.3,367.2,470.3,368.2z"/>
			<path d="M485.3,368.2c0,1-0.8,1.8-1.8,1.8c-1,0-1.8-0.8-1.8-1.8c0-1,0.8-1.8,1.8-1.8C484.5,366.4,485.3,367.2,485.3,368.2z"/>
			<path d="M500.4,368.2c0,1-0.8,1.8-1.8,1.8c-1,0-1.8-0.8-1.8-1.8c0-1,0.8-1.8,1.8-1.8C499.6,366.4,500.4,367.2,500.4,368.2z"/>
			<path d="M410,383.2c0,1-0.8,1.8-1.8,1.8c-1,0-1.8-0.8-1.8-1.8c0-1,0.8-1.8,1.8-1.8C409.2,381.4,410,382.2,410,383.2z"/>
			<path d="M425.1,383.2c0,1-0.8,1.8-1.8,1.8c-1,0-1.8-0.8-1.8-1.8c0-1,0.8-1.8,1.8-1.8C424.3,381.4,425.1,382.2,425.1,383.2z"/>
			<path d="M440.2,383.2c0,1-0.8,1.8-1.8,1.8c-1,0-1.8-0.8-1.8-1.8c0-1,0.8-1.8,1.8-1.8C439.4,381.4,440.2,382.2,440.2,383.2z"/>
			<path d="M455.2,383.2c0,1-0.8,1.8-1.8,1.8s-1.8-0.8-1.8-1.8c0-1,0.8-1.8,1.8-1.8S455.2,382.2,455.2,383.2z"/>
			<path d="M470.3,383.2c0,1-0.8,1.8-1.8,1.8c-1,0-1.8-0.8-1.8-1.8c0-1,0.8-1.8,1.8-1.8C469.5,381.4,470.3,382.2,470.3,383.2z"/>
			<path d="M485.3,383.2c0,1-0.8,1.8-1.8,1.8c-1,0-1.8-0.8-1.8-1.8c0-1,0.8-1.8,1.8-1.8C484.5,381.4,485.3,382.2,485.3,383.2z"/>
			<path d="M500.4,383.2c0,1-0.8,1.8-1.8,1.8c-1,0-1.8-0.8-1.8-1.8c0-1,0.8-1.8,1.8-1.8C499.6,381.4,500.4,382.2,500.4,383.2z"/>
			<path d="M410,398.3c0,1-0.8,1.8-1.8,1.8c-1,0-1.8-0.8-1.8-1.8c0-1,0.8-1.8,1.8-1.8C409.2,396.5,410,397.3,410,398.3z"/>
			<path d="M425.1,398.3c0,1-0.8,1.8-1.8,1.8c-1,0-1.8-0.8-1.8-1.8c0-1,0.8-1.8,1.8-1.8C424.3,396.5,425.1,397.3,425.1,398.3z"/>
			<path d="M440.2,398.3c0,1-0.8,1.8-1.8,1.8c-1,0-1.8-0.8-1.8-1.8c0-1,0.8-1.8,1.8-1.8C439.4,396.5,440.2,397.3,440.2,398.3z"/>
			<path d="M455.2,398.3c0,1-0.8,1.8-1.8,1.8s-1.8-0.8-1.8-1.8c0-1,0.8-1.8,1.8-1.8S455.2,397.3,455.2,398.3z"/>
			<path d="M470.3,398.3c0,1-0.8,1.8-1.8,1.8c-1,0-1.8-0.8-1.8-1.8c0-1,0.8-1.8,1.8-1.8C469.5,396.5,470.3,397.3,470.3,398.3z"/>
			<path d="M485.3,398.3c0,1-0.8,1.8-1.8,1.8c-1,0-1.8-0.8-1.8-1.8c0-1,0.8-1.8,1.8-1.8C484.5,396.5,485.3,397.3,485.3,398.3z"/>
			<path d="M500.4,398.3c0,1-0.8,1.8-1.8,1.8c-1,0-1.8-0.8-1.8-1.8c0-1,0.8-1.8,1.8-1.8C499.6,396.5,500.4,397.3,500.4,398.3z"/>
		</g>
		<g>
			<g>
				<path d="M652.5,349.4c-11,0-20-9-20-20c0-11,9-20,20-20c11,0,20,9,20,20C672.5,340.4,663.6,349.4,652.5,349.4z M652.5,311
					c-10.1,0-18.3,8.2-18.3,18.3c0,10.1,8.2,18.3,18.3,18.3c10.1,0,18.3-8.2,18.3-18.3C670.9,319.3,662.7,311,652.5,311z"/>
			</g>
			<g>
				<path class="st2" d="M652.5,338.5c-5.1,0-9.2-4.1-9.2-9.2c0-5.1,4.1-9.2,9.2-9.2c5.1,0,9.2,4.1,9.2,9.2
					C661.7,334.4,657.6,338.5,652.5,338.5z M652.5,321.9c-4.1,0-7.5,3.4-7.5,7.5c0,4.1,3.4,7.5,7.5,7.5c4.1,0,7.5-3.4,7.5-7.5
					C660.1,325.2,656.7,321.9,652.5,321.9z"/>
			</g>
		</g>
		<g>
			<g>
				<path d="M223,76.5c-11.8,0-21.3-9.6-21.3-21.3c0-11.8,9.6-21.3,21.3-21.3c11.8,0,21.3,9.6,21.3,21.3
					C244.3,66.9,234.7,76.5,223,76.5z M223,35.6c-10.8,0-19.5,8.8-19.5,19.5c0,10.8,8.8,19.5,19.5,19.5c10.8,0,19.5-8.8,19.5-19.5
					C242.5,44.4,233.8,35.6,223,35.6z"/>
			</g>
			<g>
				<path d="M223,65c-5.4,0-9.8-4.4-9.8-9.8c0-5.4,4.4-9.8,9.8-9.8c5.4,0,9.8,4.4,9.8,9.8C232.8,60.6,228.4,65,223,65z M223,47.2
					c-4.4,0-8,3.6-8,8s3.6,8,8,8s8-3.6,8-8S227.4,47.2,223,47.2z"/>
			</g>
		</g>
		<g>
			<g>
				<path d="M342.9,301.2c-11,0-20-9-20-20c0-11,9-20,20-20c11,0,20,9,20,20C363,292.2,354,301.2,342.9,301.2z M342.9,262.8
					c-10.1,0-18.4,8.2-18.4,18.4c0,10.1,8.2,18.4,18.4,18.4c10.1,0,18.4-8.2,18.4-18.4C361.3,271.1,353.1,262.8,342.9,262.8z"/>
			</g>
			<g>
				<path d="M342.9,290.4c-5.1,0-9.2-4.1-9.2-9.2c0-5.1,4.1-9.2,9.2-9.2c5.1,0,9.2,4.1,9.2,9.2C352.1,286.2,348,290.4,342.9,290.4z
					 M342.9,273.7c-4.1,0-7.5,3.4-7.5,7.5c0,4.1,3.4,7.5,7.5,7.5c4.1,0,7.5-3.4,7.5-7.5C350.5,277,347.1,273.7,342.9,273.7z"/>
			</g>
			<g>
				<path d="M342.9,312c-17,0-30.9-13.8-30.9-30.9c0-17,13.8-30.9,30.9-30.9c17,0,30.9,13.8,30.9,30.9
					C373.8,298.2,360,312,342.9,312z M342.9,252c-16.1,0-29.2,13.1-29.2,29.2c0,16.1,13.1,29.2,29.2,29.2
					c16.1,0,29.2-13.1,29.2-29.2C372.2,265.1,359.1,252,342.9,252z"/>
			</g>
			<g>
				<path d="M342.9,322.9c-23,0-41.7-18.7-41.7-41.7c0-23,18.7-41.7,41.7-41.7c23,0,41.7,18.7,41.7,41.7
					C384.7,304.2,365.9,322.9,342.9,322.9z M342.9,241.1c-22.1,0-40,18-40,40c0,22.1,18,40,40,40c22.1,0,40-18,40-40
					C383,259.1,365,241.1,342.9,241.1z"/>
			</g>
		</g>
		<g>
			<g>
				<path d="M315.4,71.8c-2.6,0-5.3-1.1-7.2-3.2c-3.5-3.9-3.1-10,0.9-13.4c3.9-3.5,10-3.1,13.4,0.9c1.7,1.9,2.5,4.4,2.3,6.9
					c-0.2,2.5-1.3,4.8-3.2,6.5C319.8,71.1,317.6,71.8,315.4,71.8z M315.4,54.2c-1.9,0-3.8,0.7-5.3,2c-3.4,3-3.7,8.1-0.8,11.5
					c1.4,1.6,3.4,2.6,5.6,2.8c2.2,0.1,4.3-0.6,5.9-2c1.6-1.4,2.6-3.4,2.8-5.6c0.1-2.2-0.6-4.3-2-5.9
					C319.9,55.2,317.6,54.2,315.4,54.2z"/>
			</g>
			<g>
				<path d="M280.2,102.9c-0.2,0-0.4,0-0.7,0c-2.5-0.2-4.8-1.3-6.5-3.2c-3.5-3.9-3.1-10,0.9-13.4l0.9,1c-3.4,2.9-3.7,8.1-0.8,11.5
					c1.4,1.6,3.4,2.6,5.6,2.8c2.2,0.1,4.3-0.6,5.9-2l0.9,1C284.7,102.1,282.5,102.9,280.2,102.9z"/>
			</g>
			<g>
				<rect x="268.5" y="70.6" transform="matrix(0.7501 -0.6614 0.6614 0.7501 25.8452 210.8886)" width="47" height="1.4"/>
			</g>
			<g>
				<rect x="280.1" y="83.8" transform="matrix(0.7502 -0.6612 0.6612 0.7502 19.9567 221.8406)" width="47" height="1.4"/>
			</g>
		</g>
		<g>
			<g>
				<path d="M223,417.2c-3.1,0-6.1-1.3-8.3-3.8c-4-4.6-3.6-11.6,1-15.6c4.6-4,11.6-3.6,15.6,1c1.9,2.2,2.9,5.1,2.7,8
					c-0.2,3-1.5,5.6-3.8,7.6C228.2,416.3,225.6,417.2,223,417.2z M223,396.7c-2.2,0-4.4,0.8-6.2,2.3c-3.9,3.4-4.3,9.4-0.9,13.4
					c1.7,1.9,4,3,6.5,3.2c2.5,0.2,5-0.7,6.9-2.3c1.9-1.7,3-4,3.2-6.5c0.2-2.5-0.7-5-2.3-6.9C228.2,397.8,225.6,396.7,223,396.7z"/>
			</g>
			<g>
				<path d="M194.2,442.5c-0.3,0-0.5,0-0.8,0c-2.9-0.2-5.6-1.5-7.6-3.8c-4-4.6-3.6-11.6,1-15.6l1.1,1.2c-3.9,3.4-4.3,9.4-0.9,13.3
					c1.7,1.9,4,3,6.5,3.2c2.5,0.2,5-0.7,6.9-2.3l1.1,1.2C199.5,441.5,196.9,442.5,194.2,442.5z"/>
			</g>
			<g>
				<polygon points="188,424.3 186.9,423.1 215.7,397.8 216.8,399 				"/>
			</g>
			<g>
				<polygon points="201.5,439.8 200.4,438.6 229.2,413.3 230.3,414.5 				"/>
			</g>
		</g>
		<g>
			<g>
				<g>
					
						<rect x="83" y="221.9" transform="matrix(-1 -1.224647e-16 1.224647e-16 -1 266.7692 544.5059)" class="st2" width="100.7" height="100.7"/>
					<g>
						<path class="st3" d="M170.2,297.8l-11.9,11.9c1.3-2.5,3-4.8,5-6.8C165.5,300.8,167.8,299.1,170.2,297.8z"/>
						<path class="st3" d="M179.6,294.9L155.4,319c0.1-0.7,0.2-1.5,0.4-2.2l21.6-21.6C178.2,295.1,178.9,295,179.6,294.9z"/>
						<path class="st3" d="M186.1,294.8l-30.7,30.7c-0.1-0.6-0.1-1.1-0.1-1.7l29.2-29.2C185,294.7,185.6,294.7,186.1,294.8z"/>
						<path class="st3" d="M191.5,295.9l-35,35c-0.1-0.5-0.3-0.9-0.4-1.4l34-34C190.5,295.6,191,295.8,191.5,295.9z"/>
						<path class="st3" d="M196,297.8l-37.7,37.7c-0.2-0.4-0.4-0.8-0.6-1.2l37.1-37.1C195.2,297.4,195.6,297.6,196,297.8z"/>
						<path class="st3" d="M200,300.3l-39.2,39.2c-0.3-0.3-0.5-0.7-0.8-1l38.9-38.9C199.3,299.8,199.6,300,200,300.3z"/>
						<path class="st3" d="M202.9,302.8c0.2,0.2,0.3,0.3,0.4,0.5l-39.5,39.5c-0.2-0.1-0.3-0.3-0.5-0.4c-0.2-0.2-0.3-0.3-0.4-0.5
							l39.5-39.5C202.6,302.5,202.8,302.7,202.9,302.8z"/>
						<path class="st3" d="M205.5,305.8c0.3,0.3,0.5,0.7,0.8,1l-38.9,38.9c-0.4-0.2-0.7-0.5-1-0.8L205.5,305.8z"/>
						<path class="st3" d="M208,309.7c0.2,0.4,0.4,0.8,0.6,1.2L171.5,348c-0.4-0.2-0.8-0.4-1.2-0.6L208,309.7z"/>
						<path class="st3" d="M209.9,314.3c0.1,0.5,0.3,0.9,0.4,1.4l-34,34c-0.5-0.1-0.9-0.2-1.4-0.4L209.9,314.3z"/>
						<path class="st3" d="M211,319.7c0.1,0.6,0.1,1.1,0.1,1.7l-29.2,29.2c-0.6,0-1.1-0.1-1.7-0.1L211,319.7z"/>
						<path class="st3" d="M210.9,326.2c-0.1,0.7-0.2,1.4-0.4,2.2L188.9,350c-0.7,0.2-1.4,0.3-2.2,0.4L210.9,326.2z"/>
						<path class="st3" d="M208,335.5c-1.3,2.5-3,4.8-5,6.8c-2.1,2.1-4.4,3.7-6.8,5L208,335.5z"/>
					</g>
				</g>
			</g>
			<g>
				<g>
					<g>
						<polygon points="83.2,256.5 73.4,246.7 63.7,256.5 54,246.7 44.3,256.5 34.5,246.7 25.2,256.1 24.4,255.3 34.5,245.1 
							44.3,254.9 54,245.1 63.7,254.9 73.4,245.1 83.2,254.9 92.9,245.1 103,255.3 102.2,256.1 92.9,246.7 						"/>
					</g>
				</g>
				<g>
					<g>
						<polygon points="83.2,274.4 73.4,264.7 63.7,274.4 54,264.7 44.3,274.4 34.5,264.7 25.2,274 24.4,273.2 34.5,263.1 
							44.3,272.8 54,263.1 63.7,272.8 73.4,263.1 83.2,272.8 92.9,263.1 103,273.2 102.2,274 92.9,264.7 						"/>
					</g>
				</g>
			</g>
		</g>
		<g>
			<g>
				<g>
					<polygon points="460.5,442.5 450.3,432.3 440.1,442.5 429.9,432.3 419.7,442.5 409.5,432.3 399.7,442.1 398.9,441.2 
						409.5,430.6 419.7,440.8 429.9,430.6 440.1,440.8 450.3,430.6 460.5,440.8 470.7,430.6 481.3,441.2 480.5,442.1 470.7,432.3 
											"/>
				</g>
			</g>
			<g>
				<g>
					<polygon points="460.5,461.3 450.3,451.1 440.1,461.3 429.9,451.1 419.7,461.3 409.5,451.1 399.7,460.8 398.9,460 409.5,449.4 
						419.7,459.6 429.9,449.4 440.1,459.6 450.3,449.4 460.5,459.6 470.7,449.4 481.3,460 480.5,460.8 470.7,451.1 					"/>
				</g>
			</g>
		</g>
		<g>
			<g>
				<path d="M601.8,228.9l8.7-32.5l32.5-8.7l0.4,1.4l-8.5,31.7l-31.5,8.4L601.8,228.9z M611.7,197.6l-8,30l30-8l8-30L611.7,197.6z"
					/>
			</g>
			<g>
				<path d="M658.1,244l-1.4-0.3l-23.2-23.2l8.5-31.7l1-1l23.8,23.8L658.1,244z M635.1,220l22,22l8-30l-22-22L635.1,220z"/>
			</g>
			<g>
				<path d="M625.6,252.7l-23.8-23.8l1.3-1.1l31.5-8.4l23.2,23.2l0.4,1.4L625.6,252.7z M604.1,229.1l22,22l30-8l-22-22L604.1,229.1z
					"/>
			</g>
			<g>
				<path class="st1" d="M604.1,229.1l22,22l30-8l-22-22L604.1,229.1z"/>
			</g>
			<g>
				<path class="st0" d="M635.1,220l22,22l8-30l-22-22L635.1,220z"/>
			</g>
		</g>
		<g>
			<g>
				<path d="M284.1,349l-2.1,0.5h-36.7v-48.4l0.5-1.4h17.9v31.4h20.3V349z M247,347.9h35.5v-15.2h-20.3v-31.4H247V347.9z"/>
			</g>
			<g>
				<path d="M236,358.8v-49.3l9.8-9.8l1.1,0.8V349l-9.1,9.1L236,358.8z M237.7,310.2V356l7.7-7.7v-45.9L237.7,310.2z"/>
			</g>
			<g>
				<path d="M274.3,358.8H236l0.8-1.9l9-9h37.4l0.8,1.1L274.3,358.8z M238.8,357.2h34.8l7.7-7.7h-34.8L238.8,357.2z"/>
			</g>
			<g>
				<path class="st4" d="M238.8,357.2h34.8l7.7-7.7h-34.8L238.8,357.2z"/>
			</g>
			<g>
				<path class="st1" d="M237.7,310.2V356l7.7-7.7v-45.9L237.7,310.2z"/>
			</g>
		</g>
		<g>
			
				<ellipse transform="matrix(0.9125 -0.4091 0.4091 0.9125 13.9726 244.6121)" class="st2" cx="578.8" cy="89.6" rx="49.2" ry="49.2"/>
			<g>
				<path d="M504.2,98.1c0,0.4-0.3,0.7-0.7,0.7c-0.4,0-0.7-0.3-0.7-0.7s0.3-0.7,0.7-0.7C503.9,97.4,504.2,97.7,504.2,98.1z"/>
				<circle cx="509.7" cy="98.1" r="0.7"/>
				<path d="M516.6,98.1c0,0.4-0.3,0.7-0.7,0.7c-0.4,0-0.7-0.3-0.7-0.7s0.3-0.7,0.7-0.7C516.3,97.4,516.6,97.7,516.6,98.1z"/>
				<path d="M522.8,98.1c0,0.4-0.3,0.7-0.7,0.7c-0.4,0-0.7-0.3-0.7-0.7s0.3-0.7,0.7-0.7C522.5,97.4,522.8,97.7,522.8,98.1z"/>
				<path d="M529,98.1c0,0.4-0.3,0.7-0.7,0.7c-0.4,0-0.7-0.3-0.7-0.7s0.3-0.7,0.7-0.7C528.7,97.4,529,97.7,529,98.1z"/>
				<circle cx="534.5" cy="98.1" r="0.7"/>
				<path d="M541.5,98.1c0,0.4-0.3,0.7-0.7,0.7c-0.4,0-0.7-0.3-0.7-0.7s0.3-0.7,0.7-0.7C541.1,97.4,541.5,97.7,541.5,98.1z"/>
				<path d="M504.2,104.3c0,0.4-0.3,0.7-0.7,0.7c-0.4,0-0.7-0.3-0.7-0.7s0.3-0.7,0.7-0.7C503.9,103.6,504.2,103.9,504.2,104.3z"/>
				<path d="M510.4,104.3c0,0.4-0.3,0.7-0.7,0.7c-0.4,0-0.7-0.3-0.7-0.7s0.3-0.7,0.7-0.7C510.1,103.6,510.4,103.9,510.4,104.3z"/>
				<path d="M516.6,104.3c0,0.4-0.3,0.7-0.7,0.7c-0.4,0-0.7-0.3-0.7-0.7s0.3-0.7,0.7-0.7C516.3,103.6,516.6,103.9,516.6,104.3z"/>
				<path d="M522.8,104.3c0,0.4-0.3,0.7-0.7,0.7c-0.4,0-0.7-0.3-0.7-0.7s0.3-0.7,0.7-0.7C522.5,103.6,522.8,103.9,522.8,104.3z"/>
				<path d="M529,104.3c0,0.4-0.3,0.7-0.7,0.7c-0.4,0-0.7-0.3-0.7-0.7s0.3-0.7,0.7-0.7C528.7,103.6,529,103.9,529,104.3z"/>
				<path d="M535.3,104.3c0,0.4-0.3,0.7-0.7,0.7c-0.4,0-0.7-0.3-0.7-0.7s0.3-0.7,0.7-0.7C534.9,103.6,535.3,103.9,535.3,104.3z"/>
				<path d="M541.5,104.3c0,0.4-0.3,0.7-0.7,0.7c-0.4,0-0.7-0.3-0.7-0.7s0.3-0.7,0.7-0.7C541.1,103.6,541.5,103.9,541.5,104.3z"/>
				<path d="M504.2,110.5c0,0.4-0.3,0.7-0.7,0.7c-0.4,0-0.7-0.3-0.7-0.7s0.3-0.7,0.7-0.7C503.9,109.8,504.2,110.1,504.2,110.5z"/>
				<circle cx="509.7" cy="110.5" r="0.7"/>
				<path d="M516.6,110.5c0,0.4-0.3,0.7-0.7,0.7c-0.4,0-0.7-0.3-0.7-0.7s0.3-0.7,0.7-0.7C516.3,109.8,516.6,110.1,516.6,110.5z"/>
				<path d="M522.8,110.5c0,0.4-0.3,0.7-0.7,0.7c-0.4,0-0.7-0.3-0.7-0.7s0.3-0.7,0.7-0.7C522.5,109.8,522.8,110.1,522.8,110.5z"/>
				<path d="M529,110.5c0,0.4-0.3,0.7-0.7,0.7c-0.4,0-0.7-0.3-0.7-0.7s0.3-0.7,0.7-0.7C528.7,109.8,529,110.1,529,110.5z"/>
				<circle cx="534.5" cy="110.5" r="0.7"/>
				<path d="M541.5,110.5c0,0.4-0.3,0.7-0.7,0.7c-0.4,0-0.7-0.3-0.7-0.7s0.3-0.7,0.7-0.7C541.1,109.8,541.5,110.1,541.5,110.5z"/>
				<path d="M504.2,116.7c0,0.4-0.3,0.7-0.7,0.7c-0.4,0-0.7-0.3-0.7-0.7s0.3-0.7,0.7-0.7C503.9,116,504.2,116.3,504.2,116.7z"/>
				<path d="M510.4,116.7c0,0.4-0.3,0.7-0.7,0.7c-0.4,0-0.7-0.3-0.7-0.7s0.3-0.7,0.7-0.7C510.1,116,510.4,116.3,510.4,116.7z"/>
				<path d="M516.6,116.7c0,0.4-0.3,0.7-0.7,0.7c-0.4,0-0.7-0.3-0.7-0.7s0.3-0.7,0.7-0.7C516.3,116,516.6,116.3,516.6,116.7z"/>
				<path d="M522.8,116.7c0,0.4-0.3,0.7-0.7,0.7c-0.4,0-0.7-0.3-0.7-0.7s0.3-0.7,0.7-0.7C522.5,116,522.8,116.3,522.8,116.7z"/>
				<path d="M529,116.7c0,0.4-0.3,0.7-0.7,0.7c-0.4,0-0.7-0.3-0.7-0.7s0.3-0.7,0.7-0.7C528.7,116,529,116.3,529,116.7z"/>
				<path d="M535.3,116.7c0,0.4-0.3,0.7-0.7,0.7c-0.4,0-0.7-0.3-0.7-0.7s0.3-0.7,0.7-0.7C534.9,116,535.3,116.3,535.3,116.7z"/>
				<path d="M541.5,116.7c0,0.4-0.3,0.7-0.7,0.7c-0.4,0-0.7-0.3-0.7-0.7s0.3-0.7,0.7-0.7C541.1,116,541.5,116.3,541.5,116.7z"/>
				<path d="M504.2,123c0,0.4-0.3,0.7-0.7,0.7c-0.4,0-0.7-0.3-0.7-0.7c0-0.4,0.3-0.7,0.7-0.7C503.9,122.2,504.2,122.6,504.2,123z"/>
				<path d="M510.4,123c0,0.4-0.3,0.7-0.7,0.7c-0.4,0-0.7-0.3-0.7-0.7c0-0.4,0.3-0.7,0.7-0.7C510.1,122.2,510.4,122.6,510.4,123z"/>
				<path d="M516.6,123c0,0.4-0.3,0.7-0.7,0.7c-0.4,0-0.7-0.3-0.7-0.7c0-0.4,0.3-0.7,0.7-0.7C516.3,122.2,516.6,122.6,516.6,123z"/>
				<path d="M522.8,123c0,0.4-0.3,0.7-0.7,0.7c-0.4,0-0.7-0.3-0.7-0.7c0-0.4,0.3-0.7,0.7-0.7C522.5,122.2,522.8,122.6,522.8,123z"/>
				<path d="M529,123c0,0.4-0.3,0.7-0.7,0.7c-0.4,0-0.7-0.3-0.7-0.7c0-0.4,0.3-0.7,0.7-0.7C528.7,122.2,529,122.6,529,123z"/>
				<path d="M535.3,123c0,0.4-0.3,0.7-0.7,0.7c-0.4,0-0.7-0.3-0.7-0.7c0-0.4,0.3-0.7,0.7-0.7C534.9,122.2,535.3,122.6,535.3,123z"/>
				<path d="M541.5,123c0,0.4-0.3,0.7-0.7,0.7c-0.4,0-0.7-0.3-0.7-0.7c0-0.4,0.3-0.7,0.7-0.7C541.1,122.2,541.5,122.6,541.5,123z"/>
				<path d="M504.2,129.2c0,0.4-0.3,0.7-0.7,0.7c-0.4,0-0.7-0.3-0.7-0.7c0-0.4,0.3-0.7,0.7-0.7C503.9,128.4,504.2,128.8,504.2,129.2
					z"/>
				<path d="M510.4,129.2c0,0.4-0.3,0.7-0.7,0.7c-0.4,0-0.7-0.3-0.7-0.7c0-0.4,0.3-0.7,0.7-0.7C510.1,128.4,510.4,128.8,510.4,129.2
					z"/>
				<path d="M516.6,129.2c0,0.4-0.3,0.7-0.7,0.7c-0.4,0-0.7-0.3-0.7-0.7c0-0.4,0.3-0.7,0.7-0.7C516.3,128.4,516.6,128.8,516.6,129.2
					z"/>
				<path d="M522.8,129.2c0,0.4-0.3,0.7-0.7,0.7c-0.4,0-0.7-0.3-0.7-0.7c0-0.4,0.3-0.7,0.7-0.7C522.5,128.4,522.8,128.8,522.8,129.2
					z"/>
				<path d="M529,129.2c0,0.4-0.3,0.7-0.7,0.7c-0.4,0-0.7-0.3-0.7-0.7c0-0.4,0.3-0.7,0.7-0.7C528.7,128.4,529,128.8,529,129.2z"/>
				<path d="M535.3,129.2c0,0.4-0.3,0.7-0.7,0.7c-0.4,0-0.7-0.3-0.7-0.7c0-0.4,0.3-0.7,0.7-0.7C534.9,128.4,535.3,128.8,535.3,129.2
					z"/>
				<path d="M541.5,129.2c0,0.4-0.3,0.7-0.7,0.7c-0.4,0-0.7-0.3-0.7-0.7c0-0.4,0.3-0.7,0.7-0.7C541.1,128.4,541.5,128.8,541.5,129.2
					z"/>
				<path d="M504.2,135.4c0,0.4-0.3,0.7-0.7,0.7c-0.4,0-0.7-0.3-0.7-0.7c0-0.4,0.3-0.7,0.7-0.7C503.9,134.6,504.2,135,504.2,135.4z"
					/>
				<path d="M510.4,135.4c0,0.4-0.3,0.7-0.7,0.7c-0.4,0-0.7-0.3-0.7-0.7c0-0.4,0.3-0.7,0.7-0.7C510.1,134.6,510.4,135,510.4,135.4z"
					/>
				<path d="M516.6,135.4c0,0.4-0.3,0.7-0.7,0.7c-0.4,0-0.7-0.3-0.7-0.7c0-0.4,0.3-0.7,0.7-0.7C516.3,134.6,516.6,135,516.6,135.4z"
					/>
				<path d="M522.8,135.4c0,0.4-0.3,0.7-0.7,0.7c-0.4,0-0.7-0.3-0.7-0.7c0-0.4,0.3-0.7,0.7-0.7C522.5,134.6,522.8,135,522.8,135.4z"
					/>
				<path d="M529,135.4c0,0.4-0.3,0.7-0.7,0.7c-0.4,0-0.7-0.3-0.7-0.7c0-0.4,0.3-0.7,0.7-0.7C528.7,134.6,529,135,529,135.4z"/>
				<path d="M535.3,135.4c0,0.4-0.3,0.7-0.7,0.7c-0.4,0-0.7-0.3-0.7-0.7c0-0.4,0.3-0.7,0.7-0.7C534.9,134.6,535.3,135,535.3,135.4z"
					/>
				<path d="M541.5,135.4c0,0.4-0.3,0.7-0.7,0.7c-0.4,0-0.7-0.3-0.7-0.7c0-0.4,0.3-0.7,0.7-0.7C541.1,134.6,541.5,135,541.5,135.4z"
					/>
				<path d="M547.7,98.1c0,0.4-0.3,0.7-0.7,0.7c-0.4,0-0.7-0.3-0.7-0.7s0.3-0.7,0.7-0.7C547.4,97.4,547.7,97.7,547.7,98.1z"/>
				<path d="M553.9,98.1c0,0.4-0.3,0.7-0.7,0.7c-0.4,0-0.7-0.3-0.7-0.7s0.3-0.7,0.7-0.7C553.6,97.4,553.9,97.7,553.9,98.1z"/>
				<path d="M560.1,98.1c0,0.4-0.3,0.7-0.7,0.7c-0.4,0-0.7-0.3-0.7-0.7s0.3-0.7,0.7-0.7C559.8,97.4,560.1,97.7,560.1,98.1z"/>
				<path d="M566.3,98.1c0,0.4-0.3,0.7-0.7,0.7c-0.4,0-0.7-0.3-0.7-0.7s0.3-0.7,0.7-0.7C566,97.4,566.3,97.7,566.3,98.1z"/>
				<path d="M572.5,98.1c0,0.4-0.3,0.7-0.7,0.7c-0.4,0-0.7-0.3-0.7-0.7s0.3-0.7,0.7-0.7C572.2,97.4,572.5,97.7,572.5,98.1z"/>
				<circle cx="578" cy="98.1" r="0.7"/>
				<path d="M547.7,104.3c0,0.4-0.3,0.7-0.7,0.7c-0.4,0-0.7-0.3-0.7-0.7s0.3-0.7,0.7-0.7C547.4,103.6,547.7,103.9,547.7,104.3z"/>
				<path d="M553.9,104.3c0,0.4-0.3,0.7-0.7,0.7c-0.4,0-0.7-0.3-0.7-0.7s0.3-0.7,0.7-0.7C553.6,103.6,553.9,103.9,553.9,104.3z"/>
				<path d="M560.1,104.3c0,0.4-0.3,0.7-0.7,0.7c-0.4,0-0.7-0.3-0.7-0.7s0.3-0.7,0.7-0.7C559.8,103.6,560.1,103.9,560.1,104.3z"/>
				<path d="M566.3,104.3c0,0.4-0.3,0.7-0.7,0.7c-0.4,0-0.7-0.3-0.7-0.7s0.3-0.7,0.7-0.7C566,103.6,566.3,103.9,566.3,104.3z"/>
				<path d="M572.5,104.3c0,0.4-0.3,0.7-0.7,0.7c-0.4,0-0.7-0.3-0.7-0.7s0.3-0.7,0.7-0.7C572.2,103.6,572.5,103.9,572.5,104.3z"/>
				<path d="M578.8,104.3c0,0.4-0.3,0.7-0.7,0.7c-0.4,0-0.7-0.3-0.7-0.7s0.3-0.7,0.7-0.7C578.4,103.6,578.8,103.9,578.8,104.3z"/>
				<path d="M547.7,110.5c0,0.4-0.3,0.7-0.7,0.7c-0.4,0-0.7-0.3-0.7-0.7s0.3-0.7,0.7-0.7C547.4,109.8,547.7,110.1,547.7,110.5z"/>
				<path d="M553.9,110.5c0,0.4-0.3,0.7-0.7,0.7c-0.4,0-0.7-0.3-0.7-0.7s0.3-0.7,0.7-0.7C553.6,109.8,553.9,110.1,553.9,110.5z"/>
				<path d="M560.1,110.5c0,0.4-0.3,0.7-0.7,0.7c-0.4,0-0.7-0.3-0.7-0.7s0.3-0.7,0.7-0.7C559.8,109.8,560.1,110.1,560.1,110.5z"/>
				<path d="M566.3,110.5c0,0.4-0.3,0.7-0.7,0.7c-0.4,0-0.7-0.3-0.7-0.7s0.3-0.7,0.7-0.7C566,109.8,566.3,110.1,566.3,110.5z"/>
				<path d="M572.5,110.5c0,0.4-0.3,0.7-0.7,0.7c-0.4,0-0.7-0.3-0.7-0.7s0.3-0.7,0.7-0.7C572.2,109.8,572.5,110.1,572.5,110.5z"/>
				<circle cx="578" cy="110.5" r="0.7"/>
				<path d="M547.7,116.7c0,0.4-0.3,0.7-0.7,0.7c-0.4,0-0.7-0.3-0.7-0.7s0.3-0.7,0.7-0.7C547.4,116,547.7,116.3,547.7,116.7z"/>
				<path d="M553.9,116.7c0,0.4-0.3,0.7-0.7,0.7c-0.4,0-0.7-0.3-0.7-0.7s0.3-0.7,0.7-0.7C553.6,116,553.9,116.3,553.9,116.7z"/>
				<path d="M560.1,116.7c0,0.4-0.3,0.7-0.7,0.7c-0.4,0-0.7-0.3-0.7-0.7s0.3-0.7,0.7-0.7C559.8,116,560.1,116.3,560.1,116.7z"/>
				<path d="M566.3,116.7c0,0.4-0.3,0.7-0.7,0.7c-0.4,0-0.7-0.3-0.7-0.7s0.3-0.7,0.7-0.7C566,116,566.3,116.3,566.3,116.7z"/>
				<path d="M572.5,116.7c0,0.4-0.3,0.7-0.7,0.7c-0.4,0-0.7-0.3-0.7-0.7s0.3-0.7,0.7-0.7C572.2,116,572.5,116.3,572.5,116.7z"/>
				<path d="M578.8,116.7c0,0.4-0.3,0.7-0.7,0.7c-0.4,0-0.7-0.3-0.7-0.7s0.3-0.7,0.7-0.7C578.4,116,578.8,116.3,578.8,116.7z"/>
				<path d="M547.7,123c0,0.4-0.3,0.7-0.7,0.7c-0.4,0-0.7-0.3-0.7-0.7c0-0.4,0.3-0.7,0.7-0.7C547.4,122.2,547.7,122.6,547.7,123z"/>
				<path d="M553.9,123c0,0.4-0.3,0.7-0.7,0.7c-0.4,0-0.7-0.3-0.7-0.7c0-0.4,0.3-0.7,0.7-0.7C553.6,122.2,553.9,122.6,553.9,123z"/>
				<path d="M560.1,123c0,0.4-0.3,0.7-0.7,0.7c-0.4,0-0.7-0.3-0.7-0.7c0-0.4,0.3-0.7,0.7-0.7C559.8,122.2,560.1,122.6,560.1,123z"/>
				<path d="M566.3,123c0,0.4-0.3,0.7-0.7,0.7c-0.4,0-0.7-0.3-0.7-0.7c0-0.4,0.3-0.7,0.7-0.7C566,122.2,566.3,122.6,566.3,123z"/>
				<path d="M572.5,123c0,0.4-0.3,0.7-0.7,0.7c-0.4,0-0.7-0.3-0.7-0.7c0-0.4,0.3-0.7,0.7-0.7C572.2,122.2,572.5,122.6,572.5,123z"/>
				<path d="M578.8,123c0,0.4-0.3,0.7-0.7,0.7c-0.4,0-0.7-0.3-0.7-0.7c0-0.4,0.3-0.7,0.7-0.7C578.4,122.2,578.8,122.6,578.8,123z"/>
				<path d="M547.7,129.2c0,0.4-0.3,0.7-0.7,0.7c-0.4,0-0.7-0.3-0.7-0.7c0-0.4,0.3-0.7,0.7-0.7C547.4,128.4,547.7,128.8,547.7,129.2
					z"/>
				<path d="M553.9,129.2c0,0.4-0.3,0.7-0.7,0.7c-0.4,0-0.7-0.3-0.7-0.7c0-0.4,0.3-0.7,0.7-0.7C553.6,128.4,553.9,128.8,553.9,129.2
					z"/>
				<path d="M560.1,129.2c0,0.4-0.3,0.7-0.7,0.7c-0.4,0-0.7-0.3-0.7-0.7c0-0.4,0.3-0.7,0.7-0.7C559.8,128.4,560.1,128.8,560.1,129.2
					z"/>
				<path d="M566.3,129.2c0,0.4-0.3,0.7-0.7,0.7c-0.4,0-0.7-0.3-0.7-0.7c0-0.4,0.3-0.7,0.7-0.7C566,128.4,566.3,128.8,566.3,129.2z"
					/>
				<path d="M572.5,129.2c0,0.4-0.3,0.7-0.7,0.7c-0.4,0-0.7-0.3-0.7-0.7c0-0.4,0.3-0.7,0.7-0.7C572.2,128.4,572.5,128.8,572.5,129.2
					z"/>
				<path d="M578.8,129.2c0,0.4-0.3,0.7-0.7,0.7c-0.4,0-0.7-0.3-0.7-0.7c0-0.4,0.3-0.7,0.7-0.7C578.4,128.4,578.8,128.8,578.8,129.2
					z"/>
				<path d="M547.7,135.4c0,0.4-0.3,0.7-0.7,0.7c-0.4,0-0.7-0.3-0.7-0.7c0-0.4,0.3-0.7,0.7-0.7C547.4,134.6,547.7,135,547.7,135.4z"
					/>
				<path d="M553.9,135.4c0,0.4-0.3,0.7-0.7,0.7c-0.4,0-0.7-0.3-0.7-0.7c0-0.4,0.3-0.7,0.7-0.7C553.6,134.6,553.9,135,553.9,135.4z"
					/>
				<path d="M560.1,135.4c0,0.4-0.3,0.7-0.7,0.7c-0.4,0-0.7-0.3-0.7-0.7c0-0.4,0.3-0.7,0.7-0.7C559.8,134.6,560.1,135,560.1,135.4z"
					/>
				<path d="M566.3,135.4c0,0.4-0.3,0.7-0.7,0.7c-0.4,0-0.7-0.3-0.7-0.7c0-0.4,0.3-0.7,0.7-0.7C566,134.6,566.3,135,566.3,135.4z"/>
				<path d="M572.5,135.4c0,0.4-0.3,0.7-0.7,0.7c-0.4,0-0.7-0.3-0.7-0.7c0-0.4,0.3-0.7,0.7-0.7C572.2,134.6,572.5,135,572.5,135.4z"
					/>
				<path d="M578.8,135.4c0,0.4-0.3,0.7-0.7,0.7c-0.4,0-0.7-0.3-0.7-0.7c0-0.4,0.3-0.7,0.7-0.7C578.4,134.6,578.8,135,578.8,135.4z"
					/>
				<path d="M504.2,141.6c0,0.4-0.3,0.7-0.7,0.7c-0.4,0-0.7-0.3-0.7-0.7c0-0.4,0.3-0.7,0.7-0.7C503.9,140.9,504.2,141.2,504.2,141.6
					z"/>
				<circle cx="509.7" cy="141.6" r="0.7"/>
				<path d="M516.6,141.6c0,0.4-0.3,0.7-0.7,0.7c-0.4,0-0.7-0.3-0.7-0.7c0-0.4,0.3-0.7,0.7-0.7C516.3,140.9,516.6,141.2,516.6,141.6
					z"/>
				<path d="M522.8,141.6c0,0.4-0.3,0.7-0.7,0.7c-0.4,0-0.7-0.3-0.7-0.7c0-0.4,0.3-0.7,0.7-0.7C522.5,140.9,522.8,141.2,522.8,141.6
					z"/>
				<path d="M529,141.6c0,0.4-0.3,0.7-0.7,0.7c-0.4,0-0.7-0.3-0.7-0.7c0-0.4,0.3-0.7,0.7-0.7C528.7,140.9,529,141.2,529,141.6z"/>
				<circle cx="534.5" cy="141.6" r="0.7"/>
				<path d="M541.5,141.6c0,0.4-0.3,0.7-0.7,0.7c-0.4,0-0.7-0.3-0.7-0.7c0-0.4,0.3-0.7,0.7-0.7C541.1,140.9,541.5,141.2,541.5,141.6
					z"/>
				<path d="M504.2,147.8c0,0.4-0.3,0.7-0.7,0.7c-0.4,0-0.7-0.3-0.7-0.7c0-0.4,0.3-0.7,0.7-0.7C503.9,147.1,504.2,147.4,504.2,147.8
					z"/>
				<circle cx="509.7" cy="147.8" r="0.7"/>
				<path d="M516.6,147.8c0,0.4-0.3,0.7-0.7,0.7c-0.4,0-0.7-0.3-0.7-0.7c0-0.4,0.3-0.7,0.7-0.7C516.3,147.1,516.6,147.4,516.6,147.8
					z"/>
				<path d="M522.8,147.8c0,0.4-0.3,0.7-0.7,0.7c-0.4,0-0.7-0.3-0.7-0.7c0-0.4,0.3-0.7,0.7-0.7C522.5,147.1,522.8,147.4,522.8,147.8
					z"/>
				<path d="M529,147.8c0,0.4-0.3,0.7-0.7,0.7c-0.4,0-0.7-0.3-0.7-0.7c0-0.4,0.3-0.7,0.7-0.7C528.7,147.1,529,147.4,529,147.8z"/>
				<circle cx="534.5" cy="147.8" r="0.7"/>
				<path d="M541.5,147.8c0,0.4-0.3,0.7-0.7,0.7c-0.4,0-0.7-0.3-0.7-0.7c0-0.4,0.3-0.7,0.7-0.7C541.1,147.1,541.5,147.4,541.5,147.8
					z"/>
				<path d="M504.2,154c0,0.4-0.3,0.7-0.7,0.7c-0.4,0-0.7-0.3-0.7-0.7c0-0.4,0.3-0.7,0.7-0.7C503.9,153.3,504.2,153.6,504.2,154z"/>
				<path d="M510.4,154c0,0.4-0.3,0.7-0.7,0.7c-0.4,0-0.7-0.3-0.7-0.7c0-0.4,0.3-0.7,0.7-0.7C510.1,153.3,510.4,153.6,510.4,154z"/>
				<path d="M516.6,154c0,0.4-0.3,0.7-0.7,0.7c-0.4,0-0.7-0.3-0.7-0.7c0-0.4,0.3-0.7,0.7-0.7C516.3,153.3,516.6,153.6,516.6,154z"/>
				<path d="M522.8,154c0,0.4-0.3,0.7-0.7,0.7c-0.4,0-0.7-0.3-0.7-0.7c0-0.4,0.3-0.7,0.7-0.7C522.5,153.3,522.8,153.6,522.8,154z"/>
				<path d="M529,154c0,0.4-0.3,0.7-0.7,0.7c-0.4,0-0.7-0.3-0.7-0.7c0-0.4,0.3-0.7,0.7-0.7C528.7,153.3,529,153.6,529,154z"/>
				<path d="M535.3,154c0,0.4-0.3,0.7-0.7,0.7c-0.4,0-0.7-0.3-0.7-0.7c0-0.4,0.3-0.7,0.7-0.7C534.9,153.3,535.3,153.6,535.3,154z"/>
				<path d="M541.5,154c0,0.4-0.3,0.7-0.7,0.7c-0.4,0-0.7-0.3-0.7-0.7c0-0.4,0.3-0.7,0.7-0.7C541.1,153.3,541.5,153.6,541.5,154z"/>
				<path d="M504.2,160.3c0,0.4-0.3,0.7-0.7,0.7c-0.4,0-0.7-0.3-0.7-0.7c0-0.4,0.3-0.7,0.7-0.7C503.9,159.5,504.2,159.8,504.2,160.3
					z"/>
				<path d="M510.4,160.3c0,0.4-0.3,0.7-0.7,0.7c-0.4,0-0.7-0.3-0.7-0.7c0-0.4,0.3-0.7,0.7-0.7C510.1,159.5,510.4,159.8,510.4,160.3
					z"/>
				<path d="M516.6,160.3c0,0.4-0.3,0.7-0.7,0.7c-0.4,0-0.7-0.3-0.7-0.7c0-0.4,0.3-0.7,0.7-0.7C516.3,159.5,516.6,159.8,516.6,160.3
					z"/>
				<path d="M522.8,160.3c0,0.4-0.3,0.7-0.7,0.7c-0.4,0-0.7-0.3-0.7-0.7c0-0.4,0.3-0.7,0.7-0.7C522.5,159.5,522.8,159.8,522.8,160.3
					z"/>
				<path d="M529,160.3c0,0.4-0.3,0.7-0.7,0.7c-0.4,0-0.7-0.3-0.7-0.7c0-0.4,0.3-0.7,0.7-0.7C528.7,159.5,529,159.8,529,160.3z"/>
				<path d="M535.3,160.3c0,0.4-0.3,0.7-0.7,0.7c-0.4,0-0.7-0.3-0.7-0.7c0-0.4,0.3-0.7,0.7-0.7C534.9,159.5,535.3,159.8,535.3,160.3
					z"/>
				<path d="M541.5,160.3c0,0.4-0.3,0.7-0.7,0.7c-0.4,0-0.7-0.3-0.7-0.7c0-0.4,0.3-0.7,0.7-0.7C541.1,159.5,541.5,159.8,541.5,160.3
					z"/>
				<path d="M504.2,166.5c0,0.4-0.3,0.7-0.7,0.7c-0.4,0-0.7-0.3-0.7-0.7c0-0.4,0.3-0.7,0.7-0.7C503.9,165.7,504.2,166.1,504.2,166.5
					z"/>
				<path d="M510.4,166.5c0,0.4-0.3,0.7-0.7,0.7c-0.4,0-0.7-0.3-0.7-0.7c0-0.4,0.3-0.7,0.7-0.7C510.1,165.7,510.4,166.1,510.4,166.5
					z"/>
				<path d="M516.6,166.5c0,0.4-0.3,0.7-0.7,0.7c-0.4,0-0.7-0.3-0.7-0.7c0-0.4,0.3-0.7,0.7-0.7C516.3,165.7,516.6,166.1,516.6,166.5
					z"/>
				<path d="M522.8,166.5c0,0.4-0.3,0.7-0.7,0.7c-0.4,0-0.7-0.3-0.7-0.7c0-0.4,0.3-0.7,0.7-0.7C522.5,165.7,522.8,166.1,522.8,166.5
					z"/>
				<path d="M529,166.5c0,0.4-0.3,0.7-0.7,0.7c-0.4,0-0.7-0.3-0.7-0.7c0-0.4,0.3-0.7,0.7-0.7C528.7,165.7,529,166.1,529,166.5z"/>
				<path d="M535.3,166.5c0,0.4-0.3,0.7-0.7,0.7c-0.4,0-0.7-0.3-0.7-0.7c0-0.4,0.3-0.7,0.7-0.7C534.9,165.7,535.3,166.1,535.3,166.5
					z"/>
				<path d="M541.5,166.5c0,0.4-0.3,0.7-0.7,0.7c-0.4,0-0.7-0.3-0.7-0.7c0-0.4,0.3-0.7,0.7-0.7C541.1,165.7,541.5,166.1,541.5,166.5
					z"/>
				<path d="M504.2,172.7c0,0.4-0.3,0.7-0.7,0.7c-0.4,0-0.7-0.3-0.7-0.7s0.3-0.7,0.7-0.7C503.9,171.9,504.2,172.3,504.2,172.7z"/>
				<circle cx="509.7" cy="172.7" r="0.7"/>
				<path d="M516.6,172.7c0,0.4-0.3,0.7-0.7,0.7c-0.4,0-0.7-0.3-0.7-0.7s0.3-0.7,0.7-0.7C516.3,171.9,516.6,172.3,516.6,172.7z"/>
				<path d="M522.8,172.7c0,0.4-0.3,0.7-0.7,0.7c-0.4,0-0.7-0.3-0.7-0.7s0.3-0.7,0.7-0.7C522.5,171.9,522.8,172.3,522.8,172.7z"/>
				<path d="M529,172.7c0,0.4-0.3,0.7-0.7,0.7c-0.4,0-0.7-0.3-0.7-0.7s0.3-0.7,0.7-0.7C528.7,171.9,529,172.3,529,172.7z"/>
				<circle cx="534.5" cy="172.7" r="0.7"/>
				<path d="M541.5,172.7c0,0.4-0.3,0.7-0.7,0.7c-0.4,0-0.7-0.3-0.7-0.7s0.3-0.7,0.7-0.7C541.1,171.9,541.5,172.3,541.5,172.7z"/>
				<path d="M547.7,141.6c0,0.4-0.3,0.7-0.7,0.7c-0.4,0-0.7-0.3-0.7-0.7c0-0.4,0.3-0.7,0.7-0.7C547.4,140.9,547.7,141.2,547.7,141.6
					z"/>
				<path d="M553.9,141.6c0,0.4-0.3,0.7-0.7,0.7c-0.4,0-0.7-0.3-0.7-0.7c0-0.4,0.3-0.7,0.7-0.7C553.6,140.9,553.9,141.2,553.9,141.6
					z"/>
				<path d="M560.1,141.6c0,0.4-0.3,0.7-0.7,0.7c-0.4,0-0.7-0.3-0.7-0.7c0-0.4,0.3-0.7,0.7-0.7C559.8,140.9,560.1,141.2,560.1,141.6
					z"/>
				<path d="M566.3,141.6c0,0.4-0.3,0.7-0.7,0.7c-0.4,0-0.7-0.3-0.7-0.7c0-0.4,0.3-0.7,0.7-0.7C566,140.9,566.3,141.2,566.3,141.6z"
					/>
				<path d="M572.5,141.6c0,0.4-0.3,0.7-0.7,0.7c-0.4,0-0.7-0.3-0.7-0.7c0-0.4,0.3-0.7,0.7-0.7C572.2,140.9,572.5,141.2,572.5,141.6
					z"/>
				<circle cx="578" cy="141.6" r="0.7"/>
				<path d="M547.7,147.8c0,0.4-0.3,0.7-0.7,0.7c-0.4,0-0.7-0.3-0.7-0.7c0-0.4,0.3-0.7,0.7-0.7C547.4,147.1,547.7,147.4,547.7,147.8
					z"/>
				<path d="M553.9,147.8c0,0.4-0.3,0.7-0.7,0.7c-0.4,0-0.7-0.3-0.7-0.7c0-0.4,0.3-0.7,0.7-0.7C553.6,147.1,553.9,147.4,553.9,147.8
					z"/>
				<path d="M560.1,147.8c0,0.4-0.3,0.7-0.7,0.7c-0.4,0-0.7-0.3-0.7-0.7c0-0.4,0.3-0.7,0.7-0.7C559.8,147.1,560.1,147.4,560.1,147.8
					z"/>
				<path d="M566.3,147.8c0,0.4-0.3,0.7-0.7,0.7c-0.4,0-0.7-0.3-0.7-0.7c0-0.4,0.3-0.7,0.7-0.7C566,147.1,566.3,147.4,566.3,147.8z"
					/>
				<path d="M572.5,147.8c0,0.4-0.3,0.7-0.7,0.7c-0.4,0-0.7-0.3-0.7-0.7c0-0.4,0.3-0.7,0.7-0.7C572.2,147.1,572.5,147.4,572.5,147.8
					z"/>
				<circle cx="578" cy="147.8" r="0.7"/>
				<path d="M547.7,154c0,0.4-0.3,0.7-0.7,0.7c-0.4,0-0.7-0.3-0.7-0.7c0-0.4,0.3-0.7,0.7-0.7C547.4,153.3,547.7,153.6,547.7,154z"/>
				<path d="M553.9,154c0,0.4-0.3,0.7-0.7,0.7c-0.4,0-0.7-0.3-0.7-0.7c0-0.4,0.3-0.7,0.7-0.7C553.6,153.3,553.9,153.6,553.9,154z"/>
				<path d="M560.1,154c0,0.4-0.3,0.7-0.7,0.7c-0.4,0-0.7-0.3-0.7-0.7c0-0.4,0.3-0.7,0.7-0.7C559.8,153.3,560.1,153.6,560.1,154z"/>
				<path d="M566.3,154c0,0.4-0.3,0.7-0.7,0.7c-0.4,0-0.7-0.3-0.7-0.7c0-0.4,0.3-0.7,0.7-0.7C566,153.3,566.3,153.6,566.3,154z"/>
				<path d="M572.5,154c0,0.4-0.3,0.7-0.7,0.7c-0.4,0-0.7-0.3-0.7-0.7c0-0.4,0.3-0.7,0.7-0.7C572.2,153.3,572.5,153.6,572.5,154z"/>
				<path d="M578.8,154c0,0.4-0.3,0.7-0.7,0.7c-0.4,0-0.7-0.3-0.7-0.7c0-0.4,0.3-0.7,0.7-0.7C578.4,153.3,578.8,153.6,578.8,154z"/>
				<path d="M547.7,160.3c0,0.4-0.3,0.7-0.7,0.7c-0.4,0-0.7-0.3-0.7-0.7c0-0.4,0.3-0.7,0.7-0.7C547.4,159.5,547.7,159.8,547.7,160.3
					z"/>
				<path d="M553.9,160.3c0,0.4-0.3,0.7-0.7,0.7c-0.4,0-0.7-0.3-0.7-0.7c0-0.4,0.3-0.7,0.7-0.7C553.6,159.5,553.9,159.8,553.9,160.3
					z"/>
				<path d="M560.1,160.3c0,0.4-0.3,0.7-0.7,0.7c-0.4,0-0.7-0.3-0.7-0.7c0-0.4,0.3-0.7,0.7-0.7C559.8,159.5,560.1,159.8,560.1,160.3
					z"/>
				<path d="M566.3,160.3c0,0.4-0.3,0.7-0.7,0.7c-0.4,0-0.7-0.3-0.7-0.7c0-0.4,0.3-0.7,0.7-0.7C566,159.5,566.3,159.8,566.3,160.3z"
					/>
				<path d="M572.5,160.3c0,0.4-0.3,0.7-0.7,0.7c-0.4,0-0.7-0.3-0.7-0.7c0-0.4,0.3-0.7,0.7-0.7C572.2,159.5,572.5,159.8,572.5,160.3
					z"/>
				<path d="M578.8,160.3c0,0.4-0.3,0.7-0.7,0.7c-0.4,0-0.7-0.3-0.7-0.7c0-0.4,0.3-0.7,0.7-0.7C578.4,159.5,578.8,159.8,578.8,160.3
					z"/>
				<path d="M547.7,166.5c0,0.4-0.3,0.7-0.7,0.7c-0.4,0-0.7-0.3-0.7-0.7c0-0.4,0.3-0.7,0.7-0.7C547.4,165.7,547.7,166.1,547.7,166.5
					z"/>
				<path d="M553.9,166.5c0,0.4-0.3,0.7-0.7,0.7c-0.4,0-0.7-0.3-0.7-0.7c0-0.4,0.3-0.7,0.7-0.7C553.6,165.7,553.9,166.1,553.9,166.5
					z"/>
				<path d="M560.1,166.5c0,0.4-0.3,0.7-0.7,0.7c-0.4,0-0.7-0.3-0.7-0.7c0-0.4,0.3-0.7,0.7-0.7C559.8,165.7,560.1,166.1,560.1,166.5
					z"/>
				<path d="M566.3,166.5c0,0.4-0.3,0.7-0.7,0.7c-0.4,0-0.7-0.3-0.7-0.7c0-0.4,0.3-0.7,0.7-0.7C566,165.7,566.3,166.1,566.3,166.5z"
					/>
				<path d="M572.5,166.5c0,0.4-0.3,0.7-0.7,0.7c-0.4,0-0.7-0.3-0.7-0.7c0-0.4,0.3-0.7,0.7-0.7C572.2,165.7,572.5,166.1,572.5,166.5
					z"/>
				<path d="M578.8,166.5c0,0.4-0.3,0.7-0.7,0.7c-0.4,0-0.7-0.3-0.7-0.7c0-0.4,0.3-0.7,0.7-0.7C578.4,165.7,578.8,166.1,578.8,166.5
					z"/>
				<path d="M547.7,172.7c0,0.4-0.3,0.7-0.7,0.7c-0.4,0-0.7-0.3-0.7-0.7s0.3-0.7,0.7-0.7C547.4,171.9,547.7,172.3,547.7,172.7z"/>
				<path d="M553.9,172.7c0,0.4-0.3,0.7-0.7,0.7c-0.4,0-0.7-0.3-0.7-0.7s0.3-0.7,0.7-0.7C553.6,171.9,553.9,172.3,553.9,172.7z"/>
				<path d="M560.1,172.7c0,0.4-0.3,0.7-0.7,0.7c-0.4,0-0.7-0.3-0.7-0.7s0.3-0.7,0.7-0.7C559.8,171.9,560.1,172.3,560.1,172.7z"/>
				<path d="M566.3,172.7c0,0.4-0.3,0.7-0.7,0.7c-0.4,0-0.7-0.3-0.7-0.7s0.3-0.7,0.7-0.7C566,171.9,566.3,172.3,566.3,172.7z"/>
				<path d="M572.5,172.7c0,0.4-0.3,0.7-0.7,0.7c-0.4,0-0.7-0.3-0.7-0.7s0.3-0.7,0.7-0.7C572.2,171.9,572.5,172.3,572.5,172.7z"/>
				<circle cx="578" cy="172.7" r="0.7"/>
			</g>
			<g>
				<g>
					<g>
						<path d="M660.4,81c-2.5,0-4.8-1.4-5.8-3.7c-0.8-1.8-2.6-2.9-4.6-2.9c-2,0-3.8,1.1-4.6,2.9c-1.1,2.3-3.3,3.7-5.8,3.7
							c0,0,0,0,0,0c-2.5,0-4.8-1.4-5.8-3.7c-0.8-1.8-2.6-2.9-4.6-2.9c-2,0-3.8,1.1-4.6,2.9c-1.1,2.3-3.3,3.7-5.8,3.7
							c-2.5,0-4.8-1.4-5.8-3.7c-0.8-1.8-2.6-2.9-4.6-2.9c-2,0-3.8,1.1-4.6,2.9l-1.2-0.6c1.1-2.3,3.3-3.7,5.8-3.7
							c2.5,0,4.8,1.4,5.8,3.7c0.8,1.8,2.6,2.9,4.6,2.9c2,0,3.8-1.1,4.6-2.9c1.1-2.3,3.3-3.7,5.8-3.7s4.8,1.4,5.8,3.7
							c0.8,1.8,2.6,2.9,4.6,2.9h0c2,0,3.8-1.1,4.6-2.9c1.1-2.3,3.3-3.7,5.8-3.7c2.5,0,4.8,1.4,5.8,3.7c0.8,1.8,2.6,2.9,4.6,2.9
							c2,0,3.8-1.1,4.6-2.9c1.1-2.3,3.3-3.7,5.8-3.7c2.5,0,4.8,1.4,5.8,3.7l-1.2,0.6c-0.8-1.8-2.6-2.9-4.6-2.9c-2,0-3.8,1.1-4.6,2.9
							C665.2,79.5,663,81,660.4,81z"/>
					</g>
				</g>
				<g>
					<g>
						<path d="M660.4,64.3c-2.5,0-4.8-1.4-5.8-3.7c-0.8-1.8-2.6-2.9-4.6-2.9c-2,0-3.8,1.1-4.6,2.9c-1.1,2.3-3.3,3.7-5.8,3.7
							c0,0,0,0,0,0c-2.5,0-4.8-1.4-5.8-3.7c-0.8-1.8-2.6-2.9-4.6-2.9c-2,0-3.8,1.1-4.6,2.9c-1.1,2.3-3.3,3.7-5.8,3.7
							c-2.5,0-4.8-1.4-5.8-3.7c-0.8-1.8-2.6-2.9-4.6-2.9c-2,0-3.8,1.1-4.6,2.9l-1.2-0.6c1.1-2.3,3.3-3.7,5.8-3.7
							c2.5,0,4.8,1.4,5.8,3.7c0.8,1.8,2.6,2.9,4.6,2.9c2,0,3.8-1.1,4.6-2.9c1.1-2.3,3.3-3.7,5.8-3.7s4.8,1.4,5.8,3.7
							c0.8,1.8,2.6,2.9,4.6,2.9h0c2,0,3.8-1.1,4.6-2.9c1.1-2.3,3.3-3.7,5.8-3.7c2.5,0,4.8,1.4,5.8,3.7c0.8,1.8,2.6,2.9,4.6,2.9
							c2,0,3.8-1.1,4.6-2.9c1.1-2.3,3.3-3.7,5.8-3.7c2.5,0,4.8,1.4,5.8,3.7l-1.2,0.6c-0.8-1.8-2.6-2.9-4.6-2.9c-2,0-3.8,1.1-4.6,2.9
							C665.2,62.9,663,64.3,660.4,64.3z"/>
					</g>
				</g>
			</g>
		</g>
		<g>
			<g>
				<g>
					<path d="M256.1,133.9c0,0.5-0.4,1-1,1c-0.5,0-1-0.4-1-1c0-0.5,0.4-1,1-1C255.7,132.9,256.1,133.4,256.1,133.9z"/>
				</g>
				<g>
					<path d="M264.1,133.9c0,0.5-0.4,1-1,1c-0.5,0-1-0.4-1-1c0-0.5,0.4-1,1-1C263.7,132.9,264.1,133.4,264.1,133.9z"/>
				</g>
				<g>
					<path d="M272.1,133.9c0,0.5-0.4,1-1,1c-0.5,0-1-0.4-1-1c0-0.5,0.4-1,1-1C271.7,132.9,272.1,133.4,272.1,133.9z"/>
				</g>
				<g>
					<path d="M280.1,133.9c0,0.5-0.4,1-1,1c-0.5,0-1-0.4-1-1c0-0.5,0.4-1,1-1C279.7,132.9,280.1,133.4,280.1,133.9z"/>
				</g>
				<g>
					<path d="M288.1,133.9c0,0.5-0.4,1-1,1c-0.5,0-1-0.4-1-1c0-0.5,0.4-1,1-1C287.7,132.9,288.1,133.4,288.1,133.9z"/>
				</g>
				<g>
					<path d="M296.1,133.9c0,0.5-0.4,1-1,1c-0.5,0-1-0.4-1-1c0-0.5,0.4-1,1-1C295.6,132.9,296.1,133.4,296.1,133.9z"/>
				</g>
				<g>
					<path d="M304.1,133.9c0,0.5-0.4,1-1,1c-0.5,0-1-0.4-1-1c0-0.5,0.4-1,1-1C303.6,132.9,304.1,133.4,304.1,133.9z"/>
				</g>
				<g>
					<circle cx="255.2" cy="141.9" r="1"/>
				</g>
				<g>
					<circle cx="263.2" cy="141.9" r="1"/>
				</g>
				<g>
					<path d="M272.1,141.9c0,0.5-0.4,1-1,1c-0.5,0-1-0.4-1-1c0-0.5,0.4-1,1-1C271.7,140.9,272.1,141.4,272.1,141.9z"/>
				</g>
				<g>
					<circle cx="279.1" cy="141.9" r="1"/>
				</g>
				<g>
					<path d="M288.1,141.9c0,0.5-0.4,1-1,1c-0.5,0-1-0.4-1-1c0-0.5,0.4-1,1-1C287.7,140.9,288.1,141.4,288.1,141.9z"/>
				</g>
				<g>
					<path d="M296.1,141.9c0,0.5-0.4,1-1,1c-0.5,0-1-0.4-1-1c0-0.5,0.4-1,1-1C295.6,140.9,296.1,141.4,296.1,141.9z"/>
				</g>
				<g>
					<path d="M304.1,141.9c0,0.5-0.4,1-1,1c-0.5,0-1-0.4-1-1c0-0.5,0.4-1,1-1C303.6,140.9,304.1,141.4,304.1,141.9z"/>
				</g>
				<g>
					<circle cx="255.2" cy="149.9" r="1"/>
				</g>
				<g>
					<circle cx="263.2" cy="149.9" r="1"/>
				</g>
				<g>
					<path d="M272.1,149.9c0,0.5-0.4,1-1,1c-0.5,0-1-0.4-1-1s0.4-1,1-1C271.7,148.9,272.1,149.3,272.1,149.9z"/>
				</g>
				<g>
					<circle cx="279.1" cy="149.9" r="1"/>
				</g>
				<g>
					<path d="M288.1,149.9c0,0.5-0.4,1-1,1c-0.5,0-1-0.4-1-1s0.4-1,1-1C287.7,148.9,288.1,149.3,288.1,149.9z"/>
				</g>
				<g>
					<path d="M296.1,149.9c0,0.5-0.4,1-1,1c-0.5,0-1-0.4-1-1s0.4-1,1-1C295.6,148.9,296.1,149.3,296.1,149.9z"/>
				</g>
				<g>
					<path d="M304.1,149.9c0,0.5-0.4,1-1,1c-0.5,0-1-0.4-1-1s0.4-1,1-1C303.6,148.9,304.1,149.3,304.1,149.9z"/>
				</g>
				<g>
					<path d="M256.1,157.9c0,0.5-0.4,1-1,1c-0.5,0-1-0.4-1-1c0-0.5,0.4-1,1-1C255.7,156.9,256.1,157.3,256.1,157.9z"/>
				</g>
				<g>
					<path d="M264.1,157.9c0,0.5-0.4,1-1,1c-0.5,0-1-0.4-1-1c0-0.5,0.4-1,1-1C263.7,156.9,264.1,157.3,264.1,157.9z"/>
				</g>
				<g>
					<path d="M272.1,157.9c0,0.5-0.4,1-1,1c-0.5,0-1-0.4-1-1c0-0.5,0.4-1,1-1C271.7,156.9,272.1,157.3,272.1,157.9z"/>
				</g>
				<g>
					<path d="M280.1,157.9c0,0.5-0.4,1-1,1c-0.5,0-1-0.4-1-1c0-0.5,0.4-1,1-1C279.7,156.9,280.1,157.3,280.1,157.9z"/>
				</g>
				<g>
					<path d="M288.1,157.9c0,0.5-0.4,1-1,1c-0.5,0-1-0.4-1-1c0-0.5,0.4-1,1-1C287.7,156.9,288.1,157.3,288.1,157.9z"/>
				</g>
				<g>
					<path d="M296.1,157.9c0,0.5-0.4,1-1,1c-0.5,0-1-0.4-1-1c0-0.5,0.4-1,1-1C295.6,156.9,296.1,157.3,296.1,157.9z"/>
				</g>
				<g>
					<path d="M304.1,157.9c0,0.5-0.4,1-1,1c-0.5,0-1-0.4-1-1c0-0.5,0.4-1,1-1C303.6,156.9,304.1,157.3,304.1,157.9z"/>
				</g>
				<g>
					<path d="M256.1,165.9c0,0.5-0.4,1-1,1c-0.5,0-1-0.4-1-1c0-0.5,0.4-1,1-1C255.7,164.9,256.1,165.3,256.1,165.9z"/>
				</g>
				<g>
					<path d="M264.1,165.9c0,0.5-0.4,1-1,1c-0.5,0-1-0.4-1-1c0-0.5,0.4-1,1-1C263.7,164.9,264.1,165.3,264.1,165.9z"/>
				</g>
				<g>
					<path d="M272.1,165.9c0,0.5-0.4,1-1,1c-0.5,0-1-0.4-1-1c0-0.5,0.4-1,1-1C271.7,164.9,272.1,165.3,272.1,165.9z"/>
				</g>
				<g>
					<path d="M280.1,165.9c0,0.5-0.4,1-1,1c-0.5,0-1-0.4-1-1c0-0.5,0.4-1,1-1C279.7,164.9,280.1,165.3,280.1,165.9z"/>
				</g>
				<g>
					<path d="M288.1,165.9c0,0.5-0.4,1-1,1c-0.5,0-1-0.4-1-1c0-0.5,0.4-1,1-1C287.7,164.9,288.1,165.3,288.1,165.9z"/>
				</g>
				<g>
					<path d="M296.1,165.9c0,0.5-0.4,1-1,1c-0.5,0-1-0.4-1-1c0-0.5,0.4-1,1-1C295.6,164.9,296.1,165.3,296.1,165.9z"/>
				</g>
				<g>
					<path d="M304.1,165.9c0,0.5-0.4,1-1,1c-0.5,0-1-0.4-1-1c0-0.5,0.4-1,1-1C303.6,164.9,304.1,165.3,304.1,165.9z"/>
				</g>
				<g>
					<path d="M256.1,173.8c0,0.5-0.4,1-1,1c-0.5,0-1-0.4-1-1c0-0.5,0.4-1,1-1C255.7,172.9,256.1,173.3,256.1,173.8z"/>
				</g>
				<g>
					<path d="M264.1,173.8c0,0.5-0.4,1-1,1c-0.5,0-1-0.4-1-1c0-0.5,0.4-1,1-1C263.7,172.9,264.1,173.3,264.1,173.8z"/>
				</g>
				<g>
					<path d="M272.1,173.8c0,0.5-0.4,1-1,1c-0.5,0-1-0.4-1-1c0-0.5,0.4-1,1-1C271.7,172.9,272.1,173.3,272.1,173.8z"/>
				</g>
				<g>
					<path d="M280.1,173.8c0,0.5-0.4,1-1,1c-0.5,0-1-0.4-1-1c0-0.5,0.4-1,1-1C279.7,172.9,280.1,173.3,280.1,173.8z"/>
				</g>
				<g>
					<path d="M288.1,173.8c0,0.5-0.4,1-1,1c-0.5,0-1-0.4-1-1c0-0.5,0.4-1,1-1C287.7,172.9,288.1,173.3,288.1,173.8z"/>
				</g>
				<g>
					<path d="M296.1,173.8c0,0.5-0.4,1-1,1c-0.5,0-1-0.4-1-1c0-0.5,0.4-1,1-1C295.6,172.9,296.1,173.3,296.1,173.8z"/>
				</g>
				<g>
					<path d="M304.1,173.8c0,0.5-0.4,1-1,1c-0.5,0-1-0.4-1-1c0-0.5,0.4-1,1-1C303.6,172.9,304.1,173.3,304.1,173.8z"/>
				</g>
				<g>
					<path d="M312.1,133.9c0,0.5-0.4,1-1,1c-0.5,0-1-0.4-1-1c0-0.5,0.4-1,1-1C311.6,132.9,312.1,133.4,312.1,133.9z"/>
				</g>
				<g>
					<path d="M320.1,133.9c0,0.5-0.4,1-1,1c-0.5,0-1-0.4-1-1c0-0.5,0.4-1,1-1C319.6,132.9,320.1,133.4,320.1,133.9z"/>
				</g>
				<g>
					<path d="M328,133.9c0,0.5-0.4,1-1,1c-0.5,0-1-0.4-1-1c0-0.5,0.4-1,1-1C327.6,132.9,328,133.4,328,133.9z"/>
				</g>
				<g>
					<path d="M336,133.9c0,0.5-0.4,1-1,1c-0.5,0-1-0.4-1-1c0-0.5,0.4-1,1-1C335.6,132.9,336,133.4,336,133.9z"/>
				</g>
				<g>
					<path d="M344,133.9c0,0.5-0.4,1-1,1c-0.5,0-1-0.4-1-1c0-0.5,0.4-1,1-1C343.6,132.9,344,133.4,344,133.9z"/>
				</g>
				<g>
					<path d="M352,133.9c0,0.5-0.4,1-1,1c-0.5,0-1-0.4-1-1c0-0.5,0.4-1,1-1C351.6,132.9,352,133.4,352,133.9z"/>
				</g>
				<g>
					<circle cx="311.1" cy="141.9" r="1"/>
				</g>
				<g>
					<circle cx="319.1" cy="141.9" r="1"/>
				</g>
				<g>
					<path d="M328,141.9c0,0.5-0.4,1-1,1c-0.5,0-1-0.4-1-1c0-0.5,0.4-1,1-1C327.6,140.9,328,141.4,328,141.9z"/>
				</g>
				<g>
					<circle cx="335.1" cy="141.9" r="1"/>
				</g>
				<g>
					<path d="M344,141.9c0,0.5-0.4,1-1,1c-0.5,0-1-0.4-1-1c0-0.5,0.4-1,1-1C343.6,140.9,344,141.4,344,141.9z"/>
				</g>
				<g>
					<path d="M352,141.9c0,0.5-0.4,1-1,1c-0.5,0-1-0.4-1-1c0-0.5,0.4-1,1-1C351.6,140.9,352,141.4,352,141.9z"/>
				</g>
				<g>
					<circle cx="311.1" cy="149.9" r="1"/>
				</g>
				<g>
					<circle cx="319.1" cy="149.9" r="1"/>
				</g>
				<g>
					<path d="M328,149.9c0,0.5-0.4,1-1,1c-0.5,0-1-0.4-1-1s0.4-1,1-1C327.6,148.9,328,149.3,328,149.9z"/>
				</g>
				<g>
					<circle cx="335.1" cy="149.9" r="1"/>
				</g>
				<g>
					<path d="M344,149.9c0,0.5-0.4,1-1,1c-0.5,0-1-0.4-1-1s0.4-1,1-1C343.6,148.9,344,149.3,344,149.9z"/>
				</g>
				<g>
					<path d="M352,149.9c0,0.5-0.4,1-1,1c-0.5,0-1-0.4-1-1s0.4-1,1-1C351.6,148.9,352,149.3,352,149.9z"/>
				</g>
				<g>
					<path d="M312.1,157.9c0,0.5-0.4,1-1,1c-0.5,0-1-0.4-1-1c0-0.5,0.4-1,1-1C311.6,156.9,312.1,157.3,312.1,157.9z"/>
				</g>
				<g>
					<path d="M320.1,157.9c0,0.5-0.4,1-1,1c-0.5,0-1-0.4-1-1c0-0.5,0.4-1,1-1C319.6,156.9,320.1,157.3,320.1,157.9z"/>
				</g>
				<g>
					<path d="M328,157.9c0,0.5-0.4,1-1,1c-0.5,0-1-0.4-1-1c0-0.5,0.4-1,1-1C327.6,156.9,328,157.3,328,157.9z"/>
				</g>
				<g>
					<path d="M336,157.9c0,0.5-0.4,1-1,1c-0.5,0-1-0.4-1-1c0-0.5,0.4-1,1-1C335.6,156.9,336,157.3,336,157.9z"/>
				</g>
				<g>
					<path d="M344,157.9c0,0.5-0.4,1-1,1c-0.5,0-1-0.4-1-1c0-0.5,0.4-1,1-1C343.6,156.9,344,157.3,344,157.9z"/>
				</g>
				<g>
					<path d="M352,157.9c0,0.5-0.4,1-1,1c-0.5,0-1-0.4-1-1c0-0.5,0.4-1,1-1C351.6,156.9,352,157.3,352,157.9z"/>
				</g>
				<g>
					<path d="M312.1,165.9c0,0.5-0.4,1-1,1c-0.5,0-1-0.4-1-1c0-0.5,0.4-1,1-1C311.6,164.9,312.1,165.3,312.1,165.9z"/>
				</g>
				<g>
					<path d="M320.1,165.9c0,0.5-0.4,1-1,1c-0.5,0-1-0.4-1-1c0-0.5,0.4-1,1-1C319.6,164.9,320.1,165.3,320.1,165.9z"/>
				</g>
				<g>
					<path d="M328,165.9c0,0.5-0.4,1-1,1c-0.5,0-1-0.4-1-1c0-0.5,0.4-1,1-1C327.6,164.9,328,165.3,328,165.9z"/>
				</g>
				<g>
					<path d="M336,165.9c0,0.5-0.4,1-1,1c-0.5,0-1-0.4-1-1c0-0.5,0.4-1,1-1C335.6,164.9,336,165.3,336,165.9z"/>
				</g>
				<g>
					<path d="M344,165.9c0,0.5-0.4,1-1,1c-0.5,0-1-0.4-1-1c0-0.5,0.4-1,1-1C343.6,164.9,344,165.3,344,165.9z"/>
				</g>
				<g>
					<path d="M352,165.9c0,0.5-0.4,1-1,1c-0.5,0-1-0.4-1-1c0-0.5,0.4-1,1-1C351.6,164.9,352,165.3,352,165.9z"/>
				</g>
				<g>
					<path d="M312.1,173.8c0,0.5-0.4,1-1,1c-0.5,0-1-0.4-1-1c0-0.5,0.4-1,1-1C311.6,172.9,312.1,173.3,312.1,173.8z"/>
				</g>
				<g>
					<path d="M320.1,173.8c0,0.5-0.4,1-1,1c-0.5,0-1-0.4-1-1c0-0.5,0.4-1,1-1C319.6,172.9,320.1,173.3,320.1,173.8z"/>
				</g>
				<g>
					<path d="M328,173.8c0,0.5-0.4,1-1,1c-0.5,0-1-0.4-1-1c0-0.5,0.4-1,1-1C327.6,172.9,328,173.3,328,173.8z"/>
				</g>
				<g>
					<path d="M336,173.8c0,0.5-0.4,1-1,1c-0.5,0-1-0.4-1-1c0-0.5,0.4-1,1-1C335.6,172.9,336,173.3,336,173.8z"/>
				</g>
				<g>
					<path d="M344,173.8c0,0.5-0.4,1-1,1c-0.5,0-1-0.4-1-1c0-0.5,0.4-1,1-1C343.6,172.9,344,173.3,344,173.8z"/>
				</g>
				<g>
					<path d="M352,173.8c0,0.5-0.4,1-1,1c-0.5,0-1-0.4-1-1c0-0.5,0.4-1,1-1C351.6,172.9,352,173.3,352,173.8z"/>
				</g>
			</g>
			<g>
				<path d="M356.9,178.9H249.4v-50.4h107.5V178.9z M250.3,178h105.6v-48.5H250.3V178z"/>
			</g>
			<g>
				<path d="M324,211.7H216.6l0.7-1.4l32.4-32.4h106.3l0.9,0.9L324,211.7z M218.2,210.8h105.5l31.9-31.9H250L218.2,210.8z"/>
			</g>
			<g>
				<path d="M216.6,211.7v-50.3l32.8-32.8l0.9,0.6v49.4l-32.5,32.5L216.6,211.7z M217.5,161.8v48.3l31.9-31.9v-48.3L217.5,161.8z"/>
			</g>
			<g>
				<rect x="210.2" y="155" transform="matrix(0.7064 -0.7078 0.7078 0.7064 -41.4794 210.855)" width="46.4" height="0.9"/>
			</g>
			<g>
				<rect x="210.2" y="164.9" transform="matrix(0.7064 -0.7078 0.7078 0.7064 -48.5517 213.7885)" width="46.4" height="0.9"/>
			</g>
			<g>
				<rect x="210.2" y="174.9" transform="matrix(0.7064 -0.7078 0.7078 0.7064 -55.6241 216.722)" width="46.4" height="0.9"/>
			</g>
			<g>
				<rect x="210.2" y="184.9" transform="matrix(0.7065 -0.7077 0.7077 0.7065 -62.699 219.6333)" width="46.4" height="0.9"/>
			</g>
			<g>
				<rect x="210.4" y="194.3" transform="matrix(0.7064 -0.7079 0.7079 0.7064 -69.2581 222.5027)" width="46.4" height="0.9"/>
			</g>
			<g>
				<rect x="220.2" y="194.3" transform="matrix(0.7064 -0.7078 0.7078 0.7064 -66.3597 229.4886)" width="46.4" height="0.9"/>
			</g>
			<g>
				<rect x="230.1" y="194.3" transform="matrix(0.7071 -0.7071 0.7071 0.7071 -63.5049 236.1427)" width="46.4" height="0.9"/>
			</g>
			<g>
				<rect x="240" y="194.3" transform="matrix(0.7071 -0.7071 0.7071 0.7071 -60.6136 243.1238)" width="46.4" height="0.9"/>
			</g>
			<g>
				<rect x="249.8" y="194.3" transform="matrix(0.7071 -0.7071 0.7071 0.7071 -57.7224 250.1039)" width="46.4" height="0.9"/>
			</g>
			<g>
				<rect x="259.7" y="194.3" transform="matrix(0.7071 -0.7071 0.7071 0.7071 -54.8311 257.084)" width="46.4" height="0.9"/>
			</g>
			<g>
				<rect x="269.6" y="194.3" transform="matrix(0.7071 -0.7071 0.7071 0.7071 -51.9401 264.0637)" width="46.4" height="0.9"/>
			</g>
			<g>
				<rect x="279.5" y="194.3" transform="matrix(0.7071 -0.7071 0.7071 0.7071 -49.0488 271.0439)" width="46.4" height="0.9"/>
			</g>
			<g>
				<rect x="289.3" y="194.3" transform="matrix(0.7071 -0.7071 0.7071 0.7071 -46.1575 278.024)" width="46.4" height="0.9"/>
			</g>
			<g>
				<rect x="299.2" y="194.3" transform="matrix(0.707 -0.7072 0.7072 0.707 -43.2592 285.0332)" width="46.4" height="0.9"/>
			</g>
			<g>
				<rect x="309.1" y="194.3" transform="matrix(0.7071 -0.7071 0.7071 0.7071 -40.3752 291.9838)" width="46.4" height="0.9"/>
			</g>
		</g>
		<g>
			<g>
				<path d="M71,458.7l41.3-58.5l0.8-1.1l1,1.4l41.1,58.2L71,458.7z M113.1,401.2l-39.8,56.3l79.5,0L113.1,401.2z"/>
			</g>
			<g>
				<path d="M72.5,458.7h-22l42.1-59.6h20.5l0.6,1.2L72.5,458.7z M52.9,457.5h19l40.4-57.2h-19L52.9,457.5z"/>
			</g>
			<g>
				<rect x="88.1" y="406" width="20.5" height="1.2"/>
			</g>
			<g>
				<rect x="83.5" y="412.4" width="20.5" height="1.2"/>
			</g>
			<g>
				<rect x="79" y="418.8" width="20.5" height="1.2"/>
			</g>
			<g>
				<rect x="74.4" y="425.2" width="20.5" height="1.2"/>
			</g>
			<g>
				<rect x="69.8" y="431.6" width="20.5" height="1.2"/>
			</g>
			<g>
				<rect x="65.3" y="438" width="20.5" height="1.2"/>
			</g>
			<g>
				<rect x="60.7" y="444.4" width="20.5" height="1.2"/>
			</g>
			<g>
				<rect x="56.2" y="450.8" width="20.5" height="1.2"/>
			</g>
		</g>
		<g>
			<g>
				<path d="M446,26.2l-41.7,59.1l-0.8,1.1l-1-1.4l-41.5-58.8L446,26.2z M403.5,84.2l40.2-56.8l-80.3,0L403.5,84.2z"/>
			</g>
			<g>
				<path d="M444.5,26.2h22.2l-42.5,60.2h-20.7l-0.6-1.2L444.5,26.2z M464.3,27.4h-19.2l-40.8,57.7h19.2L464.3,27.4z"/>
			</g>
			<g>
				<rect x="408.1" y="78.2" width="20.7" height="1.2"/>
			</g>
			<g>
				<rect x="412.7" y="71.7" width="20.7" height="1.2"/>
			</g>
			<g>
				<rect x="417.3" y="65.3" width="20.7" height="1.2"/>
			</g>
			<g>
				<rect x="421.9" y="58.8" width="20.7" height="1.2"/>
			</g>
			<g>
				<rect x="426.5" y="52.3" width="20.7" height="1.2"/>
			</g>
			<g>
				<rect x="431.1" y="45.8" width="20.7" height="1.2"/>
			</g>
			<g>
				<rect x="435.7" y="39.4" width="20.7" height="1.2"/>
			</g>
			<g>
				<rect x="440.3" y="32.9" width="20.7" height="1.2"/>
			</g>
		</g>
		<g>
			<path d="M657.2,435.9c-0.1,0-0.1-0.1-0.2-0.1c-0.4-0.3-0.9-0.4-1.3-0.4c-0.3,0-0.7,0.1-1,0.2c-2,0.9-3.4,4.3-3.4,8.6
				c0,2.7,0.6,5.1,1.5,6.7c0,0,0,0.1,0.1,0.1c0.4,0.6,0.8,1.1,1.2,1.4c0,0,0,0,0,0c0.2,0.1,0.3,0.2,0.4,0.3c0.3,0.2,0.7,0.3,1,0.3
				c2.4,0,4.3-3.9,4.3-8.8C660.1,440.3,658.9,437.1,657.2,435.9z M655.7,452.2c-1.9,0-3.5-3.7-3.5-8c0-4.3,1.6-8,3.5-8
				c1.9,0,3.5,3.6,3.5,8C659.3,448.5,657.6,452.2,655.7,452.2z"/>
			<path d="M657,435.8c-5-3.5-15.8-3.4-19.4-0.3c-4.8,4-12.6,4-17.3,0c-5.1-4.3-13.3-4.3-18.4,0c-2.2,1.9-5.1,2.9-8.1,3
				c-2.9-0.1-5.8-1.1-8.1-3c-5.1-4.3-13.3-4.3-18.4,0c-4.8,4-12.5,4-17.3,0c-3.6-3.1-14.4-3.2-19.4,0.3c-0.1,0-0.1,0.1-0.2,0.1
				l1.7,0.2c0.2-0.2,0.4-0.3,0.7-0.5c4-2.4,13.4-2.2,16.6,0.5c5.1,4.3,13.3,4.3,18.4,0c4.8-4.1,12.5-4.1,17.3,0
				c2.4,2,5.5,3.1,8.6,3.2c3.1-0.1,6.2-1.2,8.6-3.2c4.8-4.1,12.5-4.1,17.3,0c5.1,4.3,13.3,4.3,18.4,0c3.2-2.7,12.7-2.9,16.6-0.5
				c0.3,0.2,0.5,0.3,0.7,0.5l1.7-0.2C657.2,435.9,657.1,435.9,657,435.8z"/>
			<path d="M653,451C653,451,652.9,451,653,451c-4.9-1.6-12.4-1-15.3,1.4c-4.8,4.1-12.6,4.1-17.3,0c-5.1-4.3-13.3-4.3-18.4,0
				c-2.2,1.9-5.1,2.9-8.1,3c-2.9-0.1-5.8-1.1-8.1-3c-5.1-4.3-13.3-4.3-18.4,0c-4.8,4.1-12.5,4.1-17.3,0c-2.9-2.5-10.5-3-15.3-1.5
				c0,0,0,0.1-0.1,0.1c-0.3,0.5-1.4,1.4-1.7,1.7c0.1-0.1,0.3-0.2,0.4-0.3c0,0,0,0,0,0c4.1-2.2,13.2-1.8,16.1,0.6
				c5.1,4.3,13.3,4.3,18.4,0c4.8-4.1,12.5-4.1,17.3,0c2.4,2,5.5,3.1,8.6,3.2c3.1-0.1,6.2-1.2,8.6-3.2c4.8-4.1,12.5-4.1,17.3,0
				c5.1,4.3,13.3,4.3,18.4,0c2.8-2.4,12-2.8,16.1-0.6c0,0,0,0,0,0c0.2,0.1,0.3,0.2,0.4,0.3C654.4,452.4,653.3,451.5,653,451z"/>
			<g>
				<path d="M527.7,444.2c0,4.9,1.9,8.8,4.3,8.8c0.4,0,0.7-0.1,1-0.3c0.1-0.1,0.3-0.2,0.4-0.3c0,0,0,0,0,0c0.5-0.3,0.9-0.8,1.2-1.4
					c0,0,0-0.1,0.1-0.1c0.9-1.6,1.5-4,1.5-6.7c0-4.3-1.4-7.7-3.4-8.6c-0.3-0.1-0.6-0.2-1-0.2c-0.5,0-0.9,0.1-1.3,0.4
					c-0.1,0-0.1,0.1-0.2,0.1C528.9,437.1,527.7,440.3,527.7,444.2z M528.5,444.2c0-4.3,1.6-8,3.5-8c1.9,0,3.5,3.6,3.5,8
					c0,4.3-1.6,8-3.5,8C530.1,452.2,528.5,448.5,528.5,444.2z"/>
			</g>
		</g>
		<g>
			<g>
				<path d="M618.7,370.3l-1.4,0.6h-56.7v-59.5l0.6-1.2L618.7,370.3z M561.9,369.7h54.7l-54.7-57.2V369.7z"/>
			</g>
			<g>
				<path d="M601.9,387.2h-57.5l0.9-1.7l15.7-15.7h56.4l1.3,0.6L601.9,387.2z M546.4,386h55l15.1-15.1h-55L546.4,386z"/>
			</g>
			<g>
				<path d="M544.4,387.2V327l16.9-16.9l0.6,1.6v58.8l-15.8,15.8L544.4,387.2z M545.6,327.5v57.6l15.1-15.1v-57.6L545.6,327.5z"/>
			</g>
			<g>
				<g>
					<polygon points="569.6,318.9 560.7,327.9 560.7,326.2 561.9,325 568,318.9 568.8,318 					"/>
				</g>
				<g>
					<polygon points="576.7,326.4 575.9,327.2 561.9,341.2 560.7,342.4 560.7,340.8 575.9,325.5 					"/>
				</g>
				<g>
					<polygon points="584,333.9 583.2,334.8 561.9,356.1 560.7,357.3 560.7,355.6 561.9,354.4 582.3,333.9 583.2,333.1 					"/>
				</g>
				<g>
					<polygon points="591.1,341.3 561.6,370.9 560.7,370 561.9,368.9 589.4,341.3 590.2,340.5 					"/>
				</g>
				<g>
					<polygon points="597.9,348.5 575.5,370.9 573.8,370.9 574.9,369.7 596.2,348.5 597.1,347.6 					"/>
				</g>
				<g>
					<polygon points="604.8,355.7 603.9,356.5 590.7,369.7 589.5,370.9 587.8,370.9 589,369.7 603.1,355.7 603.9,354.8 					"/>
				</g>
				<g>
					<polygon points="611.9,363.1 604.1,370.9 602.4,370.9 611,362.3 					"/>
				</g>
			</g>
			<g>
				<path class="st1" d="M546.4,386h55l15.1-15.1h-55L546.4,386z"/>
			</g>
		</g>
		<g>
			<g>
				<path d="M338.4,458l-1.4,0.4h-25.9v-25.6h-25.6v-25.9l0.4-1.4h25.2V381l0.4-1.1h27v25.6H364v26.9l-0.8,0.4h-24.8V458z
					 M312.3,457.1h24.8v-25.6h25.6v-24.8h-25.6v-25.6h-24.8v25.6h-25.6v24.8h25.6V457.1z"/>
			</g>
			<g>
				<path d="M353.3,443.1h-16.2v-11.5h26.3l0.5,0.9L353.3,443.1z M338.4,441.8h14.4l9.1-9.1h-23.5V441.8z"/>
			</g>
			<g>
				<path d="M327.7,468.7h-27l0.8-1.6l9.9-9.9h26.2l0.8,0.9L327.7,468.7z M302.9,467.4h24.3l9.1-9.1H312L302.9,467.4z"/>
			</g>
			<g>
				<path d="M300.8,468.7v-26.5l10.2-10.2l1.4-0.5V458l-9.9,9.9L300.8,468.7z M302,442.7v23.9l9.1-9.1v-23.9L302,442.7z"/>
			</g>
			<g>
				<path d="M301.6,443.1h-26.5l0.8-1.7l9.8-9.8h26.5l-0.6,1.5L301.6,443.1z M277.3,441.8h23.9l9.1-9.1h-23.9L277.3,441.8z"/>
			</g>
			<g>
				<path d="M275.2,443.1v-27l10.7-10.7l0.9,0.8v26.2l-10,10L275.2,443.1z M276.4,416.6V441l9.1-9.1v-24.3L276.4,416.6z"/>
			</g>
			<g>
				<path d="M312.3,406.7h-11.5v-16.2l10.7-10.7l0.9,0.6V406.7z M302,405.4h9.1V382L302,391V405.4z"/>
			</g>
			<g>
				<g>
					<path d="M293.1,410.2c0,0.6-0.5,1.1-1.1,1.1c-0.6,0-1.1-0.5-1.1-1.1c0-0.6,0.5-1.1,1.1-1.1
						C292.6,409.1,293.1,409.6,293.1,410.2z"/>
				</g>
				<g>
					<path d="M302.3,410.2c0,0.6-0.5,1.1-1.1,1.1c-0.6,0-1.1-0.5-1.1-1.1c0-0.6,0.5-1.1,1.1-1.1
						C301.8,409.1,302.3,409.6,302.3,410.2z"/>
				</g>
				<g>
					<path d="M311.5,410.2c0,0.6-0.5,1.1-1.1,1.1c-0.6,0-1.1-0.5-1.1-1.1c0-0.6,0.5-1.1,1.1-1.1C311,409.1,311.5,409.6,311.5,410.2z
						"/>
				</g>
				<g>
					<path d="M320.7,410.2c0,0.6-0.5,1.1-1.1,1.1c-0.6,0-1.1-0.5-1.1-1.1c0-0.6,0.5-1.1,1.1-1.1
						C320.2,409.1,320.7,409.6,320.7,410.2z"/>
				</g>
				<g>
					<path d="M329.9,410.2c0,0.6-0.5,1.1-1.1,1.1c-0.6,0-1.1-0.5-1.1-1.1c0-0.6,0.5-1.1,1.1-1.1
						C329.4,409.1,329.9,409.6,329.9,410.2z"/>
				</g>
				<g>
					<path d="M339.1,410.2c0,0.6-0.5,1.1-1.1,1.1c-0.6,0-1.1-0.5-1.1-1.1c0-0.6,0.5-1.1,1.1-1.1
						C338.6,409.1,339.1,409.6,339.1,410.2z"/>
				</g>
				<g>
					<path d="M348.3,410.2c0,0.6-0.5,1.1-1.1,1.1c-0.6,0-1.1-0.5-1.1-1.1c0-0.6,0.5-1.1,1.1-1.1
						C347.8,409.1,348.3,409.6,348.3,410.2z"/>
				</g>
				<g>
					<path d="M293.1,419.4c0,0.6-0.5,1.1-1.1,1.1c-0.6,0-1.1-0.5-1.1-1.1c0-0.6,0.5-1.1,1.1-1.1
						C292.6,418.3,293.1,418.8,293.1,419.4z"/>
				</g>
				<g>
					<path d="M302.3,419.4c0,0.6-0.5,1.1-1.1,1.1c-0.6,0-1.1-0.5-1.1-1.1c0-0.6,0.5-1.1,1.1-1.1
						C301.8,418.3,302.3,418.8,302.3,419.4z"/>
				</g>
				<g>
					<path d="M311.5,419.4c0,0.6-0.5,1.1-1.1,1.1c-0.6,0-1.1-0.5-1.1-1.1c0-0.6,0.5-1.1,1.1-1.1C311,418.3,311.5,418.8,311.5,419.4z
						"/>
				</g>
				<g>
					<path d="M320.7,419.4c0,0.6-0.5,1.1-1.1,1.1c-0.6,0-1.1-0.5-1.1-1.1c0-0.6,0.5-1.1,1.1-1.1
						C320.2,418.3,320.7,418.8,320.7,419.4z"/>
				</g>
				<g>
					<path d="M329.9,419.4c0,0.6-0.5,1.1-1.1,1.1c-0.6,0-1.1-0.5-1.1-1.1c0-0.6,0.5-1.1,1.1-1.1
						C329.4,418.3,329.9,418.8,329.9,419.4z"/>
				</g>
				<g>
					<path d="M339.1,419.4c0,0.6-0.5,1.1-1.1,1.1c-0.6,0-1.1-0.5-1.1-1.1c0-0.6,0.5-1.1,1.1-1.1
						C338.6,418.3,339.1,418.8,339.1,419.4z"/>
				</g>
				<g>
					<path d="M348.3,419.4c0,0.6-0.5,1.1-1.1,1.1c-0.6,0-1.1-0.5-1.1-1.1c0-0.6,0.5-1.1,1.1-1.1
						C347.8,418.3,348.3,418.8,348.3,419.4z"/>
				</g>
				<g>
					<path d="M293.1,428.6c0,0.6-0.5,1.1-1.1,1.1c-0.6,0-1.1-0.5-1.1-1.1c0-0.6,0.5-1.1,1.1-1.1C292.6,427.5,293.1,428,293.1,428.6z
						"/>
				</g>
				<g>
					<path d="M302.3,428.6c0,0.6-0.5,1.1-1.1,1.1c-0.6,0-1.1-0.5-1.1-1.1c0-0.6,0.5-1.1,1.1-1.1C301.8,427.5,302.3,428,302.3,428.6z
						"/>
				</g>
				<g>
					<path d="M311.5,428.6c0,0.6-0.5,1.1-1.1,1.1c-0.6,0-1.1-0.5-1.1-1.1c0-0.6,0.5-1.1,1.1-1.1C311,427.5,311.5,428,311.5,428.6z"
						/>
				</g>
				<g>
					<path d="M320.7,428.6c0,0.6-0.5,1.1-1.1,1.1c-0.6,0-1.1-0.5-1.1-1.1c0-0.6,0.5-1.1,1.1-1.1C320.2,427.5,320.7,428,320.7,428.6z
						"/>
				</g>
				<g>
					<path d="M329.9,428.6c0,0.6-0.5,1.1-1.1,1.1c-0.6,0-1.1-0.5-1.1-1.1c0-0.6,0.5-1.1,1.1-1.1C329.4,427.5,329.9,428,329.9,428.6z
						"/>
				</g>
				<g>
					<path d="M339.1,428.6c0,0.6-0.5,1.1-1.1,1.1c-0.6,0-1.1-0.5-1.1-1.1c0-0.6,0.5-1.1,1.1-1.1C338.6,427.5,339.1,428,339.1,428.6z
						"/>
				</g>
				<g>
					<path d="M348.3,428.6c0,0.6-0.5,1.1-1.1,1.1c-0.6,0-1.1-0.5-1.1-1.1c0-0.6,0.5-1.1,1.1-1.1C347.8,427.5,348.3,428,348.3,428.6z
						"/>
				</g>
				<g>
					<path d="M357.5,410.2c0,0.6-0.5,1.1-1.1,1.1c-0.6,0-1.1-0.5-1.1-1.1c0-0.6,0.5-1.1,1.1-1.1C357,409.1,357.5,409.6,357.5,410.2z
						"/>
				</g>
				<g>
					<path d="M357.5,419.4c0,0.6-0.5,1.1-1.1,1.1c-0.6,0-1.1-0.5-1.1-1.1c0-0.6,0.5-1.1,1.1-1.1C357,418.3,357.5,418.8,357.5,419.4z
						"/>
				</g>
				<g>
					<path d="M357.5,428.6c0,0.6-0.5,1.1-1.1,1.1c-0.6,0-1.1-0.5-1.1-1.1c0-0.6,0.5-1.1,1.1-1.1C357,427.5,357.5,428,357.5,428.6z"
						/>
				</g>
			</g>
			<g>
				<path class="st2" d="M293.1,410.2c0,0.6-0.5,1.1-1.1,1.1c-0.6,0-1.1-0.5-1.1-1.1c0-0.6,0.5-1.1,1.1-1.1
					C292.6,409.1,293.1,409.6,293.1,410.2z"/>
				<path class="st2" d="M302.3,410.2c0,0.6-0.5,1.1-1.1,1.1c-0.6,0-1.1-0.5-1.1-1.1c0-0.6,0.5-1.1,1.1-1.1
					C301.8,409.1,302.3,409.6,302.3,410.2z"/>
				<path class="st2" d="M311.5,410.2c0,0.6-0.5,1.1-1.1,1.1c-0.6,0-1.1-0.5-1.1-1.1c0-0.6,0.5-1.1,1.1-1.1
					C311,409.1,311.5,409.6,311.5,410.2z"/>
				<path class="st2" d="M320.7,410.2c0,0.6-0.5,1.1-1.1,1.1c-0.6,0-1.1-0.5-1.1-1.1c0-0.6,0.5-1.1,1.1-1.1
					C320.2,409.1,320.7,409.6,320.7,410.2z"/>
				<path class="st2" d="M329.9,410.2c0,0.6-0.5,1.1-1.1,1.1c-0.6,0-1.1-0.5-1.1-1.1c0-0.6,0.5-1.1,1.1-1.1
					C329.4,409.1,329.9,409.6,329.9,410.2z"/>
				<path class="st2" d="M339.1,410.2c0,0.6-0.5,1.1-1.1,1.1c-0.6,0-1.1-0.5-1.1-1.1c0-0.6,0.5-1.1,1.1-1.1
					C338.6,409.1,339.1,409.6,339.1,410.2z"/>
				<path class="st2" d="M348.3,410.2c0,0.6-0.5,1.1-1.1,1.1c-0.6,0-1.1-0.5-1.1-1.1c0-0.6,0.5-1.1,1.1-1.1
					C347.8,409.1,348.3,409.6,348.3,410.2z"/>
				<path class="st2" d="M293.1,419.4c0,0.6-0.5,1.1-1.1,1.1c-0.6,0-1.1-0.5-1.1-1.1c0-0.6,0.5-1.1,1.1-1.1
					C292.6,418.3,293.1,418.8,293.1,419.4z"/>
				<path class="st2" d="M302.3,419.4c0,0.6-0.5,1.1-1.1,1.1c-0.6,0-1.1-0.5-1.1-1.1c0-0.6,0.5-1.1,1.1-1.1
					C301.8,418.3,302.3,418.8,302.3,419.4z"/>
				<path class="st2" d="M311.5,419.4c0,0.6-0.5,1.1-1.1,1.1c-0.6,0-1.1-0.5-1.1-1.1c0-0.6,0.5-1.1,1.1-1.1
					C311,418.3,311.5,418.8,311.5,419.4z"/>
				<path class="st2" d="M320.7,419.4c0,0.6-0.5,1.1-1.1,1.1c-0.6,0-1.1-0.5-1.1-1.1c0-0.6,0.5-1.1,1.1-1.1
					C320.2,418.3,320.7,418.8,320.7,419.4z"/>
				<path class="st2" d="M329.9,419.4c0,0.6-0.5,1.1-1.1,1.1c-0.6,0-1.1-0.5-1.1-1.1c0-0.6,0.5-1.1,1.1-1.1
					C329.4,418.3,329.9,418.8,329.9,419.4z"/>
				<path class="st2" d="M339.1,419.4c0,0.6-0.5,1.1-1.1,1.1c-0.6,0-1.1-0.5-1.1-1.1c0-0.6,0.5-1.1,1.1-1.1
					C338.6,418.3,339.1,418.8,339.1,419.4z"/>
				<path class="st2" d="M348.3,419.4c0,0.6-0.5,1.1-1.1,1.1c-0.6,0-1.1-0.5-1.1-1.1c0-0.6,0.5-1.1,1.1-1.1
					C347.8,418.3,348.3,418.8,348.3,419.4z"/>
				<path class="st2" d="M293.1,428.6c0,0.6-0.5,1.1-1.1,1.1c-0.6,0-1.1-0.5-1.1-1.1c0-0.6,0.5-1.1,1.1-1.1
					C292.6,427.5,293.1,428,293.1,428.6z"/>
				<path class="st2" d="M302.3,428.6c0,0.6-0.5,1.1-1.1,1.1c-0.6,0-1.1-0.5-1.1-1.1c0-0.6,0.5-1.1,1.1-1.1
					C301.8,427.5,302.3,428,302.3,428.6z"/>
				<path class="st2" d="M311.5,428.6c0,0.6-0.5,1.1-1.1,1.1c-0.6,0-1.1-0.5-1.1-1.1c0-0.6,0.5-1.1,1.1-1.1
					C311,427.5,311.5,428,311.5,428.6z"/>
				<path class="st2" d="M320.7,428.6c0,0.6-0.5,1.1-1.1,1.1c-0.6,0-1.1-0.5-1.1-1.1c0-0.6,0.5-1.1,1.1-1.1
					C320.2,427.5,320.7,428,320.7,428.6z"/>
				<path class="st2" d="M329.9,428.6c0,0.6-0.5,1.1-1.1,1.1c-0.6,0-1.1-0.5-1.1-1.1c0-0.6,0.5-1.1,1.1-1.1
					C329.4,427.5,329.9,428,329.9,428.6z"/>
				<path class="st2" d="M339.1,428.6c0,0.6-0.5,1.1-1.1,1.1c-0.6,0-1.1-0.5-1.1-1.1c0-0.6,0.5-1.1,1.1-1.1
					C338.6,427.5,339.1,428,339.1,428.6z"/>
				<path class="st2" d="M348.3,428.6c0,0.6-0.5,1.1-1.1,1.1c-0.6,0-1.1-0.5-1.1-1.1c0-0.6,0.5-1.1,1.1-1.1
					C347.8,427.5,348.3,428,348.3,428.6z"/>
				<path class="st2" d="M357.5,410.2c0,0.6-0.5,1.1-1.1,1.1c-0.6,0-1.1-0.5-1.1-1.1c0-0.6,0.5-1.1,1.1-1.1
					C357,409.1,357.5,409.6,357.5,410.2z"/>
				<path class="st2" d="M357.5,419.4c0,0.6-0.5,1.1-1.1,1.1c-0.6,0-1.1-0.5-1.1-1.1c0-0.6,0.5-1.1,1.1-1.1
					C357,418.3,357.5,418.8,357.5,419.4z"/>
				<path class="st2" d="M357.5,428.6c0,0.6-0.5,1.1-1.1,1.1c-0.6,0-1.1-0.5-1.1-1.1c0-0.6,0.5-1.1,1.1-1.1
					C357,427.5,357.5,428,357.5,428.6z"/>
				<path class="st2" d="M316.6,384c0,0.6-0.5,1.1-1.1,1.1c-0.6,0-1.1-0.5-1.1-1.1c0-0.6,0.5-1.1,1.1-1.1
					C316.1,382.9,316.6,383.3,316.6,384z"/>
				<path class="st2" d="M325.8,384c0,0.6-0.5,1.1-1.1,1.1c-0.6,0-1.1-0.5-1.1-1.1c0-0.6,0.5-1.1,1.1-1.1
					C325.3,382.9,325.8,383.3,325.8,384z"/>
				<path class="st2" d="M335,384c0,0.6-0.5,1.1-1.1,1.1c-0.6,0-1.1-0.5-1.1-1.1c0-0.6,0.5-1.1,1.1-1.1
					C334.6,382.9,335,383.3,335,384z"/>
				<path class="st2" d="M316.6,393.2c0,0.6-0.5,1.1-1.1,1.1c-0.6,0-1.1-0.5-1.1-1.1c0-0.6,0.5-1.1,1.1-1.1
					C316.1,392.1,316.6,392.6,316.6,393.2z"/>
				<path class="st2" d="M325.8,393.2c0,0.6-0.5,1.1-1.1,1.1c-0.6,0-1.1-0.5-1.1-1.1c0-0.6,0.5-1.1,1.1-1.1
					C325.3,392.1,325.8,392.6,325.8,393.2z"/>
				<path class="st2" d="M335,393.2c0,0.6-0.5,1.1-1.1,1.1c-0.6,0-1.1-0.5-1.1-1.1c0-0.6,0.5-1.1,1.1-1.1
					C334.6,392.1,335,392.6,335,393.2z"/>
				<path class="st2" d="M316.6,402.4c0,0.6-0.5,1.1-1.1,1.1c-0.6,0-1.1-0.5-1.1-1.1c0-0.6,0.5-1.1,1.1-1.1
					C316.1,401.3,316.6,401.8,316.6,402.4z"/>
				<path class="st2" d="M325.8,402.4c0,0.6-0.5,1.1-1.1,1.1c-0.6,0-1.1-0.5-1.1-1.1c0-0.6,0.5-1.1,1.1-1.1
					C325.3,401.3,325.8,401.8,325.8,402.4z"/>
				<path class="st2" d="M335,402.4c0,0.6-0.5,1.1-1.1,1.1c-0.6,0-1.1-0.5-1.1-1.1c0-0.6,0.5-1.1,1.1-1.1
					C334.6,401.3,335,401.8,335,402.4z"/>
				<path class="st2" d="M316.6,433.9c0,0.6-0.5,1.1-1.1,1.1c-0.6,0-1.1-0.5-1.1-1.1c0-0.6,0.5-1.1,1.1-1.1
					C316.1,432.8,316.6,433.3,316.6,433.9z"/>
				<path class="st2" d="M325.8,433.9c0,0.6-0.5,1.1-1.1,1.1c-0.6,0-1.1-0.5-1.1-1.1c0-0.6,0.5-1.1,1.1-1.1
					C325.3,432.8,325.8,433.3,325.8,433.9z"/>
				<path class="st2" d="M335,433.9c0,0.6-0.5,1.1-1.1,1.1c-0.6,0-1.1-0.5-1.1-1.1c0-0.6,0.5-1.1,1.1-1.1
					C334.6,432.8,335,433.3,335,433.9z"/>
				<path class="st2" d="M316.6,443.1c0,0.6-0.5,1.1-1.1,1.1c-0.6,0-1.1-0.5-1.1-1.1c0-0.6,0.5-1.1,1.1-1.1
					C316.1,442,316.6,442.5,316.6,443.1z"/>
				<path class="st2" d="M325.8,443.1c0,0.6-0.5,1.1-1.1,1.1c-0.6,0-1.1-0.5-1.1-1.1c0-0.6,0.5-1.1,1.1-1.1
					C325.3,442,325.8,442.5,325.8,443.1z"/>
				<path class="st2" d="M335,443.1c0,0.6-0.5,1.1-1.1,1.1c-0.6,0-1.1-0.5-1.1-1.1c0-0.6,0.5-1.1,1.1-1.1
					C334.6,442,335,442.5,335,443.1z"/>
				<path class="st2" d="M316.6,452.3c0,0.6-0.5,1.1-1.1,1.1c-0.6,0-1.1-0.5-1.1-1.1c0-0.6,0.5-1.1,1.1-1.1
					C316.1,451.2,316.6,451.7,316.6,452.3z"/>
				<path class="st2" d="M325.8,452.3c0,0.6-0.5,1.1-1.1,1.1c-0.6,0-1.1-0.5-1.1-1.1c0-0.6,0.5-1.1,1.1-1.1
					C325.3,451.2,325.8,451.7,325.8,452.3z"/>
				<path class="st2" d="M335,452.3c0,0.6-0.5,1.1-1.1,1.1c-0.6,0-1.1-0.5-1.1-1.1c0-0.6,0.5-1.1,1.1-1.1
					C334.6,451.2,335,451.7,335,452.3z"/>
			</g>
		</g>
		<g>
			<g>
				<path d="M443.3,178.9c-17.5,0-31.8-14.3-31.8-31.8c0-17.5,14.3-31.8,31.8-31.8c17.5,0,31.8,14.3,31.8,31.8
					C475.1,164.6,460.8,178.9,443.3,178.9z M443.3,116.6c-16.8,0-30.5,13.7-30.5,30.5c0,16.8,13.7,30.5,30.5,30.5
					c16.8,0,30.5-13.7,30.5-30.5C473.8,130.3,460.1,116.6,443.3,116.6z"/>
			</g>
			<g>
				<path d="M443.3,172.8v-1.3c13.5,0,24.5-11,24.5-24.5h1.3C469,161.3,457.5,172.8,443.3,172.8z"/>
			</g>
			<g>
				<path d="M443.3,168.1c-11.6,0-21-9.4-21-21c0-11.6,9.4-21,21-21c11.6,0,21,9.4,21,21C464.3,158.7,454.9,168.1,443.3,168.1z
					 M443.3,127.3c-10.9,0-19.8,8.9-19.8,19.8c0,10.9,8.9,19.8,19.8,19.8c10.9,0,19.8-8.9,19.8-19.8
					C463.1,136.2,454.2,127.3,443.3,127.3z"/>
			</g>
		</g>
		<g>
			<path class="st1" d="M533.7,281.7c22.1,0,39.9-17.9,39.9-39.9c0-22.1-17.9-40-39.9-40c-22.1,0-39.9,17.9-39.9,40
				C493.8,263.8,511.6,281.7,533.7,281.7z M533.7,215.6c14.5,0,26.2,11.7,26.2,26.2c0,14.4-11.7,26.2-26.2,26.2
				c-14.5,0-26.2-11.7-26.2-26.2C507.5,227.3,519.2,215.6,533.7,215.6z"/>
			<g>
				<path d="M502,241.8h-1c0-18,14.7-32.7,32.7-32.7v1C516.2,210.1,502,224.3,502,241.8z"/>
			</g>
		</g>
		<g>
			<polygon points="403.4,241 401.2,241 420.3,212.9 422.5,212.9 			"/>
			<polygon points="413.9,241 411.7,241 430.8,212.9 433,212.9 			"/>
			<polygon points="424.3,241 422.2,241 441.3,212.9 443.5,212.9 			"/>
			<polygon points="434.8,241 432.6,241 451.8,212.9 453.9,212.9 			"/>
			<polygon points="445.3,241 443.1,241 462.2,212.9 464.4,212.9 			"/>
		</g>
	</g>
</g>
</svg>
