<?xml version="1.0" encoding="utf-8"?>
<!-- Generator: Adobe Illustrator 25.2.3, SVG Export Plug-In . SVG Version: 6.00 Build 0)  -->
<svg version="1.1" id="Layer_1" xmlns="http://www.w3.org/2000/svg" xmlns:xlink="http://www.w3.org/1999/xlink" x="0px" y="0px"
	 viewBox="0 0 992.1 289" style="enable-background:new 0 0 992.1 289;" xml:space="preserve">
<style type="text/css">
	.st0{fill:#F3B3BA;}
	.st1{fill:#DCDBDB;}
	.st2{fill:#F04E58;}
	.st3{fill:none;stroke:#F04E58;stroke-width:2.0001;stroke-miterlimit:10.0003;}
</style>
<g>
	<path class="st0" d="M26.4,220.2V45h39.5v79.6L138.7,45h45.8l-65.8,73.1L189,220.2h-47.5l-50.3-71.3l-25.3,28L26.4,220.2z"/>
	<path class="st0" d="M547.4,135.6v84.6h-38.3v-73.3c0-17.3-10-27.5-26-27.5c-18.5,0.3-29.8,14.8-29.8,34.3v66.6H415V147
		c0-17.3-10-27.5-25.8-27.5c-18.8,0.3-30,14.8-30,34.3v66.6h-38.5V117.6l38.5-32v23.3c9.5-16.5,25.3-24.5,45.5-24.8
		c22.8,0,39,11.5,45.5,31c8.8-20.8,25.8-30.8,48.5-31C528.6,84.1,547.4,104.1,547.4,135.6z"/>
	<path class="st0" d="M707,153.6c0,40.8-24.8,68.1-62.6,68.1c-18.8,0-33.5-7.5-43.3-21v68.1h-38.5V117.6l38.5-32v19.8
		c9.5-13.5,24.3-21,42.5-21C681.5,84.3,707,112.1,707,153.6z M668,152.4c0-21.5-13.5-37-33.3-37s-33.5,15.3-33.5,37
		c0,22.3,13.8,37.3,33.5,37.3C654.5,189.7,668,174.4,668,152.4z"/>
	<path class="st0" d="M841.1,220.2h-38.3v-23.8c-9.3,17-24.8,25.3-45,25.3c-29.8,0-48.5-19.8-48.5-51.5V47.6l38.5,38v73.6
		c0,17,9.8,27.3,25.3,27.3c18.5-0.3,29.8-14.8,29.8-34.3v-27.6l38.3-39L841.1,220.2L841.1,220.2z"/>
</g>
<path class="st0" d="M306.7,220.2l-0.3-87.8c-0.2-29.8-20.4-47.7-55.4-48.3l-48.3,40.8c13.3-7,26.5-10.6,37.9-10.6
	c18.5,0,28,8.3,28,22.5v2.5h-37c-33,0.2-51.3,15.3-51.3,40.5c0,24.5,17.5,42,46.3,42c18.8,0,33.3-6.3,42.3-17.5v15.8h37.8V220.2z
	 M268.6,174.2c-2.3,11.5-15,20.3-31.3,20.3c-13,0-21-6.8-21-17c0-10.8,7.3-15.3,22-15.3h30.3V174.2z"/>
<polygon class="st0" points="841,25.3 792.9,73.4 745.4,24.9 726.2,48.1 792.9,114.8 841,66.7 "/>
<path class="st0" d="M887.4,122.1c0-7,6.5-10,15.5-10c7,0,15.6,1.9,24.6,5.3l29.6-18.6c-15-9.5-33.9-14.9-52.4-14.9
	c-29.3,0-53,14.3-53,42c0,47.3,69.8,35.8,69.8,57.3c0,7.3-7.3,10.5-17,10.5c-10,0-21.4-2.7-32.1-7.8L845.2,203
	c15.3,12.2,36.5,18.7,58.3,18.7c30.5,0,54.8-14.5,54.8-42C958.5,132.1,887.4,142.4,887.4,122.1z"/>
<g>
	<g>
		<path class="st1" d="M21.4,222.2V47h39.5v79.6L133.7,47h45.8l-65.8,73.1L184,222.2h-47.5l-50.3-71.3l-25.3,28L21.4,222.2z"/>
		<path class="st1" d="M542.4,137.6v84.6h-38.3v-73.3c0-17.3-10-27.5-26-27.5c-18.5,0.3-29.8,14.8-29.8,34.3v66.6H410V149
			c0-17.3-10-27.5-25.8-27.5c-18.8,0.3-30,14.8-30,34.3v66.6h-38.5V119.6l38.5-32v23.3c9.5-16.5,25.3-24.5,45.5-24.8
			c22.8,0,39,11.5,45.5,31c8.8-20.8,25.8-30.8,48.5-31C523.6,86.1,542.4,106.1,542.4,137.6z"/>
		<path class="st1" d="M702,155.6c0,40.8-24.8,68.1-62.6,68.1c-18.8,0-33.5-7.5-43.3-21v68.1h-38.5V119.6l38.5-32v19.8
			c9.5-13.5,24.3-21,42.5-21C676.5,86.3,702,114.1,702,155.6z M663,154.4c0-21.5-13.5-37-33.3-37s-33.5,15.3-33.5,37
			c0,22.3,13.8,37.3,33.5,37.3C649.5,191.7,663,176.4,663,154.4z"/>
		<path class="st1" d="M836.1,222.2h-38.3v-23.8c-9.3,17-24.8,25.3-45,25.3c-29.8,0-48.5-19.8-48.5-51.5V49.6l38.5,38v73.6
			c0,17,9.8,27.3,25.3,27.3c18.5-0.3,29.8-14.8,29.8-34.3v-27.6l38.3-39L836.1,222.2L836.1,222.2z"/>
	</g>
	<path class="st1" d="M301.7,222.2l-0.3-87.8c-0.2-29.8-20.4-47.7-55.4-48.3l-48.3,40.8c13.3-7,26.5-10.6,37.9-10.6
		c18.5,0,28,8.3,28,22.5v2.5h-37c-33,0.2-51.3,15.3-51.3,40.5c0,24.5,17.5,42,46.3,42c18.8,0,33.3-6.3,42.3-17.5v15.8h37.8V222.2z
		 M263.6,176.2c-2.3,11.5-15,20.3-31.3,20.3c-13,0-21-6.8-21-17c0-10.8,7.3-15.3,22-15.3h30.3V176.2z"/>
	<polygon class="st1" points="836,27.3 787.9,75.4 740.4,26.9 721.2,50.1 787.9,116.8 836,68.7 	"/>
	<path class="st1" d="M882.4,124.1c0-7,6.5-10,15.5-10c7,0,15.6,1.9,24.6,5.3l29.6-18.6c-15-9.5-33.9-14.9-52.4-14.9
		c-29.3,0-53,14.3-53,42c0,47.3,69.8,35.8,69.8,57.3c0,7.3-7.3,10.5-17,10.5c-10,0-21.4-2.7-32.1-7.8L840.2,205
		c15.3,12.2,36.5,18.7,58.3,18.7c30.5,0,54.8-14.5,54.8-42C953.5,134.1,882.4,144.4,882.4,124.1z"/>
</g>
<g>
	<path class="st2" d="M23.4,221.2V46h39.5v79.6L135.7,46h45.8l-65.8,73.1L186,221.2h-47.5l-50.3-71.3l-25.3,28L23.4,221.2z"/>
	<path class="st2" d="M544.4,136.6v84.6h-38.3v-73.3c0-17.3-10-27.5-26-27.5c-18.5,0.3-29.8,14.8-29.8,34.3v66.6H412V148
		c0-17.3-10-27.5-25.8-27.5c-18.8,0.3-30,14.8-30,34.3v66.6h-38.5V118.6l38.5-32v23.3c9.5-16.5,25.3-24.5,45.5-24.8
		c22.8,0,39,11.5,45.5,31c8.8-20.8,25.8-30.8,48.5-31C525.6,85.1,544.4,105.1,544.4,136.6z"/>
	<path class="st2" d="M704,154.6c0,40.8-24.8,68.1-62.6,68.1c-18.8,0-33.5-7.5-43.3-21v68.1h-38.5V118.6l38.5-32v19.8
		c9.5-13.5,24.3-21,42.5-21C678.5,85.3,704,113.1,704,154.6z M665,153.4c0-21.5-13.5-37-33.3-37s-33.5,15.3-33.5,37
		c0,22.3,13.8,37.3,33.5,37.3C651.5,190.7,665,175.4,665,153.4z"/>
	<path class="st2" d="M838.1,221.2h-38.3v-23.8c-9.3,17-24.8,25.3-45,25.3c-29.8,0-48.5-19.8-48.5-51.5V48.6l38.5,38v73.6
		c0,17,9.8,27.3,25.3,27.3c18.5-0.3,29.8-14.8,29.8-34.3v-27.6l38.3-39L838.1,221.2L838.1,221.2z"/>
</g>
<path class="st2" d="M303.7,221.2l-0.3-87.8c-0.2-29.8-20.4-47.7-55.4-48.3l-48.3,40.8c13.3-7,26.5-10.6,37.9-10.6
	c18.5,0,28,8.3,28,22.5v2.5h-37c-33,0.2-51.3,15.3-51.3,40.5c0,24.5,17.5,42,46.3,42c18.8,0,33.3-6.3,42.3-17.5v15.8h37.8V221.2z
	 M265.6,175.2c-2.3,11.5-15,20.3-31.3,20.3c-13,0-21-6.8-21-17c0-10.8,7.3-15.3,22-15.3h30.3V175.2z"/>
<polygon class="st2" points="838,26.3 789.9,74.4 742.4,25.9 723.2,49.1 789.9,115.8 838,67.7 "/>
<path class="st2" d="M884.4,123.1c0-7,6.5-10,15.5-10c7,0,15.6,1.9,24.6,5.3l29.6-18.6c-15-9.5-33.9-14.9-52.4-14.9
	c-29.3,0-53,14.3-53,42c0,47.3,69.8,35.8,69.8,57.3c0,7.3-7.3,10.5-17,10.5c-10,0-21.4-2.7-32.1-7.8L842.2,204
	c15.3,12.2,36.5,18.7,58.3,18.7c30.5,0,54.8-14.5,54.8-42C955.5,133.1,884.4,143.4,884.4,123.1z"/>
<g>
	<path class="st2" d="M967.3,215.1c-0.1,0-0.2,0-0.3-0.1s-0.1-0.2-0.1-0.3v-12.1c0-0.1,0-0.2,0.1-0.3s0.2-0.1,0.3-0.1h4.5
		c1.4,0,2.5,0.3,3.3,1s1.2,1.6,1.2,2.9c0,1-0.2,1.7-0.7,2.3s-1.1,1-1.9,1.3l2.9,4.9c0,0.1,0.1,0.1,0.1,0.2c0,0.1,0,0.2-0.1,0.3
		s-0.2,0.1-0.3,0.1h-0.9c-0.2,0-0.4-0.1-0.5-0.2c-0.1-0.1-0.2-0.2-0.3-0.3l-2.7-4.7h-3.2v4.8c0,0.1,0,0.2-0.1,0.3s-0.2,0.1-0.3,0.1
		L967.3,215.1L967.3,215.1z M968.7,208.3h3.1c0.9,0,1.6-0.2,2.1-0.6c0.5-0.4,0.7-1,0.7-1.7c0-0.8-0.2-1.3-0.7-1.7s-1.1-0.6-2.1-0.6
		h-3.1V208.3z"/>
</g>
<ellipse transform="matrix(0.1906 -0.9817 0.9817 0.1906 581.791 1122.7593)" class="st3" cx="971.8" cy="208.6" rx="12.9" ry="12.9"/>
</svg>
