<?xml version="1.0" encoding="utf-8"?>
<!-- Generator: Adobe Illustrator 24.1.3, SVG Export Plug-In . SVG Version: 6.00 Build 0)  -->
<svg version="1.1" id="Capa_1" xmlns="http://www.w3.org/2000/svg" xmlns:xlink="http://www.w3.org/1999/xlink" x="0px" y="0px"
	 viewBox="0 0 161.6 60.9" style="enable-background:new 0 0 161.6 60.9;" xml:space="preserve">
<style type="text/css">
	.st0{fill:#EC1C5B;}
	.st1{fill:#007BFF;}
</style>
<polygon class="st0" points="25.3,31.1 49.8,16.9 49.8,46.8 "/>
<g>
	<path class="st1" d="M59.6,24.1c1,0,2.3,0.1,3.7,0.4l0.7,0.1l-0.1,2.5c-1.5-0.2-2.7-0.2-3.4-0.2c-1.5,0-2.5,0.3-3,1
		c-0.5,0.7-0.8,1.9-0.8,3.8c0,1.8,0.2,3.1,0.7,3.8c0.5,0.7,1.5,1.1,3,1.1l3.4-0.2l0.1,2.6c-2,0.4-3.5,0.5-4.5,0.5
		c-2.2,0-3.8-0.6-4.7-1.8c-0.9-1.2-1.4-3.2-1.4-5.9c0-2.7,0.5-4.7,1.4-5.8C55.9,24.6,57.4,24.1,59.6,24.1z"/>
	<path class="st1" d="M75.3,24.4h3.2V39h-3.2v-0.9c-1.4,0.8-2.7,1.2-4,1.2c-2,0-3.4-0.5-4-1.6c-0.7-1.1-1-3-1-5.7v-7.7h3.2v7.7
		c0,1.8,0.1,2.9,0.4,3.5c0.3,0.6,1,0.9,2.1,0.9c1.1,0,2-0.2,2.9-0.6l0.4-0.2V24.4z"/>
	<path class="st1" d="M81.7,39V24.4h3.2v1.8c1.7-1.1,3.3-1.8,5-2.1v3.2c-1.7,0.3-3.1,0.8-4.3,1.3l-0.6,0.3V39H81.7z"/>
	<path class="st1" d="M101.8,27.4c-2.3-0.3-4-0.5-5-0.5c-1,0-1.8,0.1-2.2,0.4c-0.4,0.2-0.6,0.6-0.6,1.2s0.2,0.9,0.7,1.1
		c0.4,0.2,1.5,0.5,3.1,0.7c1.6,0.3,2.8,0.7,3.5,1.3c0.7,0.6,1,1.7,1,3.2c0,1.5-0.5,2.7-1.5,3.4c-1,0.7-2.4,1.1-4.3,1.1
		c-1.2,0-2.7-0.2-4.5-0.5l-0.9-0.1l0.1-2.7c2.3,0.3,4,0.5,5.1,0.5s1.8-0.1,2.2-0.4c0.4-0.3,0.7-0.7,0.7-1.3c0-0.6-0.2-1-0.6-1.2
		c-0.4-0.2-1.4-0.5-3-0.7c-1.6-0.3-2.8-0.7-3.5-1.2c-0.7-0.6-1.1-1.6-1.1-3.1c0-1.5,0.5-2.6,1.5-3.4c1-0.7,2.3-1.1,3.9-1.1
		c1.3,0,2.8,0.2,4.6,0.5l0.9,0.2L101.8,27.4z"/>
	<path class="st1" d="M105.6,26c1-1.3,2.7-1.9,5-1.9c2.3,0,4,0.6,5,1.9c1,1.3,1.5,3.2,1.5,5.7c0,2.5-0.5,4.5-1.5,5.7
		c-1,1.3-2.7,1.9-5.1,1.9c-2.4,0-4.1-0.6-5.1-1.9c-1-1.3-1.5-3.2-1.5-5.7C104.1,29.1,104.6,27.2,105.6,26z M108,35.5
		c0.5,0.8,1.3,1.2,2.6,1.2s2.2-0.4,2.6-1.2c0.4-0.8,0.7-2.1,0.7-3.8c0-1.8-0.2-3-0.7-3.8c-0.5-0.7-1.3-1.1-2.6-1.1s-2.1,0.4-2.6,1.1
		c-0.5,0.7-0.7,2-0.7,3.8C107.3,33.4,107.5,34.7,108,35.5z"/>
	<path class="st1" d="M118,24.4h3.3l2.8,11.9h0.9l2.9-11.9h3.3L127.5,39h-5.7L118,24.4z"/>
	<path class="st1" d="M133.2,21.9v-3.4h3.2v3.4H133.2z M133.2,39V24.4h3.2V39H133.2z"/>
	<path class="st1" d="M150.4,28.9v6.7c0,0.4,0.1,0.7,0.3,1c0.2,0.2,0.5,0.3,1,0.4l-0.1,2.4c-1.7,0-3-0.4-3.9-1.1
		c-1.6,0.7-3.1,1.1-4.7,1.1c-2.9,0-4.4-1.6-4.4-4.7c0-1.5,0.4-2.6,1.2-3.2c0.8-0.7,2-1.1,3.7-1.2l3.8-0.3v-1.1
		c0-0.8-0.2-1.3-0.5-1.6c-0.3-0.3-0.8-0.5-1.5-0.5c-1.3,0-2.8,0.1-4.7,0.2l-0.9,0.1l-0.1-2.3c2.1-0.5,4.1-0.8,5.9-0.8
		s3.1,0.4,3.9,1.2C150,26,150.4,27.2,150.4,28.9z M143.9,32.5c-1.3,0.1-2,0.9-2,2.2s0.6,2,1.8,2c1,0,2-0.2,3.1-0.5l0.5-0.2v-3.9
		L143.9,32.5z"/>
</g>
<path class="st1" d="M37.1,42.5c-0.3,1-0.7,2-1.2,2.7c-1.7,3-5.1,4.5-10,4.5s-8.3-1.5-10.1-4.6c-1.8-3-2.6-8.1-2.6-15.1
	c0-7,0.9-12.1,2.7-15.3c1.8-3.2,5.1-4.8,10-4.8c4.9,0,8.2,1.6,10,4.8c0.8,1.5,1.5,3.5,1.9,5.9l8-4.6c-0.8-2.7-1.8-4.9-3.1-6.8
	c-3.2-4.5-8.8-6.8-16.8-6.8c-8,0-13.6,2.3-16.8,6.8c-3.2,4.5-4.8,11.5-4.8,20.9c0,9.4,1.6,16.2,4.8,20.6c3.2,4.4,8.8,6.6,16.8,6.6
	c8,0,13.6-2.2,16.8-6.5c0.7-1,1.4-2.2,1.9-3.4L37.1,42.5z"/>
<g>
	<g>
		<path class="st1" d="M153.6,26.9V28h-0.3v-2.8h1c0.3,0,0.5,0.1,0.7,0.2c0.1,0.1,0.2,0.3,0.2,0.6c0,0.4-0.2,0.7-0.5,0.8l0.5,1.1
			h-0.3l-0.5-1.1H153.6z M154.3,26.6c0.4,0,0.6-0.2,0.6-0.6c0-0.4-0.2-0.6-0.6-0.6h-0.7v1.2H154.3z"/>
	</g>
	<g>
		<path class="st1" d="M154.3,24.4c1.2,0,2.2,1,2.2,2.2s-1,2.2-2.2,2.2s-2.2-1-2.2-2.2S153.1,24.4,154.3,24.4 M154.3,23.9
			c-1.5,0-2.7,1.2-2.7,2.7s1.2,2.7,2.7,2.7c1.5,0,2.7-1.2,2.7-2.7S155.8,23.9,154.3,23.9L154.3,23.9z"/>
	</g>
</g>
</svg>
