<?xml version="1.0" encoding="utf-8"?>
<!-- Generator: Adobe Illustrator 27.7.0, SVG Export Plug-In . SVG Version: 6.00 Build 0)  -->
<svg version="1.1" id="Capa_1" xmlns="http://www.w3.org/2000/svg" xmlns:xlink="http://www.w3.org/1999/xlink" x="0px" y="0px"
	 viewBox="0 0 161.6 60.9" style="enable-background:new 0 0 161.6 60.9;" xml:space="preserve">
<style type="text/css">
	.st0{fill:none;}
	.st1{fill:#007BFF;}
	.st2{fill:#EC1C5B;}
	.st3{fill:none;stroke:#007BFF;stroke-width:0.3372;stroke-miterlimit:10.0003;}
</style>
<line class="st0" x1="124.8" y1="17.2" x2="123" y2="17.7"/>
<path class="st1" d="M17.2,17.5c1.7,0,4,0.2,6.5,0.7l1.2,0.2l-0.2,4.4c-2.6-0.3-4.7-0.3-5.9-0.3c-2.6,0-4.4,0.5-5.2,1.7
	c-0.9,1.2-1.4,3.3-1.4,6.6c0,3.1,0.3,5.4,1.2,6.6c0.9,1.2,2.6,1.9,5.2,1.9l5.9-0.3l0.2,4.5c-3.5,0.7-6.1,0.9-7.9,0.9
	c-3.8,0-6.6-1-8.2-3.1S6.2,35.7,6.2,31S7,22.7,8.6,20.8C10.7,18.4,13.3,17.5,17.2,17.5z"/>
<path class="st1" d="M39.6,23.1h4.3v19.6h-4.3v-1.2c-1.9,1.1-3.6,1.6-5.4,1.6c-2.7,0-4.6-0.7-5.4-2.1c-0.9-1.5-1.3-4-1.3-7.6V23h4.3
	v10.3c0,2.4,0.1,3.9,0.5,4.7c0.4,0.8,1.3,1.2,2.8,1.2s2.7-0.3,3.9-0.8l0.5-0.3L39.6,23.1L39.6,23.1z"/>
<path class="st1" d="M48.2,42.7V23.1h4.3v2.4c2.3-1.5,4.4-2.4,6.7-2.8V27c-2.3,0.4-4.2,1.1-5.8,1.7l-0.8,0.4v13.5h-4.4V42.7z"/>
<path class="st1" d="M75.2,27.2c-3.1-0.4-5.4-0.7-6.7-0.7c-1.3,0-2.4,0.1-2.9,0.5c-0.5,0.3-0.8,0.8-0.8,1.6s0.3,1.2,0.9,1.5
	c0.5,0.3,2,0.7,4.2,0.9c2.1,0.4,3.8,0.9,4.7,1.7c0.9,0.8,1.3,2.3,1.3,4.3s-0.7,3.6-2,4.6c-1.3,0.9-3.2,1.5-5.8,1.5
	c-1.6,0-3.6-0.3-6-0.7l-1.2-0.1l0.1-3.6c3.1,0.4,5.4,0.7,6.8,0.7c1.5,0,2.4-0.1,2.9-0.5s0.9-0.9,0.9-1.7s-0.3-1.3-0.8-1.6
	s-1.9-0.7-4-0.9c-2.1-0.4-3.8-0.9-4.7-1.6c-0.9-0.8-1.5-2.1-1.5-4.2s0.7-3.5,2-4.6c1.3-0.9,3.1-1.5,5.2-1.5c1.7,0,3.8,0.3,6.2,0.7
	l1.2,0.3L75.2,27.2z"/>
<path class="st2" d="M80.3,25.3c1.3-1.7,3.6-2.5,6.7-2.5s5.4,0.8,6.7,2.5c1.3,1.7,2,4.3,2,7.6s-0.7,6-2,7.6
	c-1.3,1.7-3.6,2.5-6.8,2.5c-3.2,0-5.5-0.8-6.8-2.5s-2-4.3-2-7.6C78.2,29.4,78.9,26.9,80.3,25.3z M83.5,38c0.7,1.1,1.7,1.6,3.5,1.6
	c1.7,0,2.9-0.5,3.5-1.6c0.5-1.1,0.9-2.8,0.9-5.1c0-2.4-0.3-4-0.9-5.1c-0.7-0.9-1.7-1.5-3.5-1.5c-1.7,0-2.8,0.5-3.5,1.5
	c-0.7,0.9-0.9,2.7-0.9,5.1C82.5,35.2,82.8,36.9,83.5,38z"/>
<path class="st1" d="M96.9,23.1h4.4l3.8,15.9h1.2l3.9-15.9h4.4l-5,19.6H102L96.9,23.1z"/>
<path class="st1" d="M117.2,19.8v-4.6h4.3v4.6H117.2z M117.2,42.7V23.1h4.3v19.6H117.2z"/>
<path class="st1" d="M145.8,25.9v11.7c0,0.7,0.2,1.2,0.5,1.7c0.3,0.3,0.9,0.5,1.7,0.7l-0.2,4.2c-3,0-5.2-0.7-6.8-1.9
	c-2.8,1.2-5.4,1.9-8.2,1.9c-5.1,0-7.7-2.8-7.7-8.2c0-2.6,0.7-4.5,2.1-5.6c1.4-1.2,3.5-1.9,6.5-2.1l6.6-0.5v-1.9
	c0-1.4-0.3-2.3-0.9-2.8c-0.5-0.5-1.4-0.9-2.6-0.9c-2.3,0-4.9,0.2-8.2,0.3l-1.6,0.2l-0.2-4c3.7-0.9,7.2-1.4,10.3-1.4s5.4,0.7,6.8,2.1
	C145.1,20.8,145.8,22.9,145.8,25.9z M134.4,32.2c-2.3,0.2-3.5,1.6-3.5,3.8s1,3.5,3.1,3.5c1.7,0,3.5-0.3,5.4-0.9l0.9-0.3v-6.8
	L134.4,32.2z"/>
<g>
	<path class="st1" d="M149.4,21C149.4,21,149.4,21,149.4,21C149.3,20.9,149.3,20.9,149.4,21l-0.1-2.1c0,0,0,0,0-0.1c0,0,0,0,0.1,0
		h0.8c0.2,0,0.4,0.1,0.6,0.2c0.1,0.1,0.2,0.3,0.2,0.5c0,0.2,0,0.3-0.1,0.4s-0.2,0.2-0.3,0.2l0.5,0.8c0,0,0,0,0,0c0,0,0,0,0,0.1
		c0,0,0,0-0.1,0h-0.2c0,0-0.1,0-0.1,0c0,0,0,0-0.1-0.1l-0.5-0.8h-0.5v0.8c0,0,0,0,0,0.1c0,0,0,0-0.1,0L149.4,21L149.4,21z
		 M149.6,19.8h0.5c0.2,0,0.3,0,0.4-0.1c0.1-0.1,0.1-0.2,0.1-0.3c0-0.1,0-0.2-0.1-0.3c-0.1-0.1-0.2-0.1-0.4-0.1h-0.5V19.8z"/>
</g>
<ellipse class="st3" cx="150.1" cy="19.9" rx="2.2" ry="2.2"/>
</svg>
